<svg width="33" height="29" viewBox="0 0 33 29" fill="none" xmlns="http://www.w3.org/2000/svg">
<path d="M13.0898 21.4065C11.1514 21.4065 9.52319 22.9969 9.52319 24.9753C9.52319 26.9148 11.1127 28.544 13.0898 28.544C15.0282 28.544 16.6565 26.9536 16.6565 24.9753C16.6565 23.0357 15.0282 21.4065 13.0898 21.4065ZM13.0898 26.2166C12.392 26.2166 11.8105 25.6347 11.8105 24.9365C11.8105 24.2382 12.392 23.6564 13.0898 23.6564C13.7876 23.6564 14.3692 24.2382 14.3692 24.9365C14.3692 25.6347 13.7876 26.2166 13.0898 26.2166Z" fill="#EC003B"/>
<path d="M24.9914 21.4065C23.0531 21.4065 21.4248 22.9969 21.4248 24.9753C21.4248 26.9148 23.0143 28.544 24.9914 28.544C26.9298 28.544 28.5581 26.9536 28.5581 24.9753C28.5581 23.0357 26.9298 21.4065 24.9914 21.4065ZM24.9914 26.2166C24.2936 26.2166 23.7121 25.6347 23.7121 24.9365C23.7121 24.2382 24.2936 23.6564 24.9914 23.6564C25.6893 23.6564 26.2708 24.2382 26.2708 24.9365C26.2708 25.6347 25.6893 26.2166 24.9914 26.2166Z" fill="#EC003B"/>
<path d="M31.8533 5.11425C31.6207 4.84271 31.3106 4.64876 30.9617 4.64876H8.01118L7.04198 0.924815C6.92568 0.420531 6.46047 0.0714111 5.91772 0.0714111H1.18806C0.567773 0.0714111 0.0250244 0.575695 0.0250244 1.23514C0.0250244 1.8558 0.529005 2.39887 1.18806 2.39887H5.02606L5.99525 6.08402C5.99525 6.12282 5.99525 6.12282 5.99525 6.16161L9.56188 19.8549C9.67819 20.3591 10.1434 20.7083 10.6861 20.7083H27.395C27.899 20.7083 28.3642 20.3591 28.5193 19.8549L32.0859 6.16161C32.1635 5.81249 32.0859 5.46337 31.8921 5.15304L31.8533 5.11425ZM26.5034 18.3808H11.5778L8.63146 6.97622H29.4885L26.5421 18.3808H26.5034Z" fill="#EC003B"/>
</svg>
