<svg width="33" height="29" viewBox="0 0 33 29" fill="none" xmlns="http://www.w3.org/2000/svg">
<path d="M13.4648 21.4065C11.5264 21.4065 9.89813 22.9969 9.89813 24.9753C9.89813 26.9148 11.4876 28.544 13.4648 28.544C15.4032 28.544 17.0314 26.9536 17.0314 24.9753C17.0314 23.0357 15.4032 21.4065 13.4648 21.4065ZM13.4648 26.2166C12.767 26.2166 12.1854 25.6347 12.1854 24.9365C12.1854 24.2382 12.767 23.6564 13.4648 23.6564C14.1626 23.6564 14.7441 24.2382 14.7441 24.9365C14.7441 25.6347 14.1626 26.2166 13.4648 26.2166Z" fill="#EC003B"/>
<path d="M25.3664 21.4065C23.428 21.4065 21.7998 22.9969 21.7998 24.9753C21.7998 26.9148 23.3893 28.544 25.3664 28.544C27.3048 28.544 28.933 26.9536 28.933 24.9753C28.933 23.0357 27.3048 21.4065 25.3664 21.4065ZM25.3664 26.2166C24.6686 26.2166 24.0871 25.6347 24.0871 24.9365C24.0871 24.2382 24.6686 23.6564 25.3664 23.6564C26.0642 23.6564 26.6458 24.2382 26.6458 24.9365C26.6458 25.6347 26.0642 26.2166 25.3664 26.2166Z" fill="#EC003B"/>
<path d="M32.2283 5.11425C31.9957 4.84271 31.6855 4.64876 31.3366 4.64876H8.38612L7.41693 0.924815C7.30062 0.420531 6.83541 0.0714111 6.29266 0.0714111H1.563C0.942712 0.0714111 0.399963 0.575695 0.399963 1.23514C0.399963 1.8558 0.903944 2.39887 1.563 2.39887H5.401L6.3702 6.08402C6.3702 6.12282 6.3702 6.12282 6.3702 6.16161L9.93683 19.8549C10.0531 20.3591 10.5183 20.7083 11.0611 20.7083H27.77C28.274 20.7083 28.7392 20.3591 28.8943 19.8549L32.4609 6.16161C32.5384 5.81249 32.4609 5.46337 32.267 5.15304L32.2283 5.11425ZM26.8783 18.3808H11.9528L9.0064 6.97622H29.8635L26.9171 18.3808H26.8783Z" fill="#EC003B"/>
</svg>
