<svg width="284" height="213" viewBox="0 0 284 213" fill="none" xmlns="http://www.w3.org/2000/svg">
<path opacity="0.1" d="M164.437 24.2671C146.293 23.7796 129.012 19.2261 112.522 14.2439C96.0318 9.26158 79.662 3.75096 61.9522 1.11178C50.5622 -0.585561 37.5369 -0.825486 28.3593 3.91942C19.5263 8.48565 16.674 16.37 15.1398 23.6877C13.983 29.1907 13.3048 34.9846 16.4689 40.1354C18.6566 43.7087 22.5645 46.718 25.2609 50.1433C34.6409 62.0655 28.012 76.7648 17.8444 88.4037C13.0751 93.8633 7.54286 99.0727 3.86197 104.885C0.181085 110.696 -1.51442 117.361 1.69883 123.282C4.89021 129.153 12.4954 133.571 20.735 136.677C37.4685 142.982 57.1884 144.786 76.4159 145.81C118.979 148.071 161.771 147.086 204.448 146.111C220.241 145.748 236.105 145.381 251.644 143.482C260.272 142.428 269.178 140.756 275.435 136.718C283.388 131.593 285.357 122.912 280.03 116.485C271.093 105.704 246.393 103.026 240.133 91.4564C236.693 85.0882 240.226 77.9925 245.223 72.0862C255.943 59.4162 273.912 48.3005 274.858 33.8182C275.507 23.8638 266.87 13.9095 253.514 9.20288C239.515 4.2691 220.102 4.88933 209.759 13.057C199.146 21.4646 180.457 24.7087 164.437 24.2671Z" fill="#E2E2E2"/>
<path opacity="0.1" d="M119.08 212.261C162.993 212.261 198.591 208.91 198.591 204.777C198.591 200.644 162.993 197.294 119.08 197.294C75.1671 197.294 39.5688 200.644 39.5688 204.777C39.5688 208.91 75.1671 212.261 119.08 212.261Z" fill="#0074C2"/>
<path d="M73.6616 92.2662C73.6616 92.2662 70.1339 73.6109 57.0402 64.3662C51.5462 60.4866 47.5262 55.2108 45.7705 49.2025C44.9443 46.3556 44.4149 43.4409 44.1899 40.4989" stroke="#535461" stroke-width="2" stroke-miterlimit="10"/>
<path d="M35.9804 34.6287C37.0743 36.6273 44.3841 40.673 44.3841 40.673C44.3841 40.673 45.3029 33.1151 44.2009 31.114C43.0988 29.1128 40.3723 28.2782 38.097 29.2481C35.8218 30.218 34.8783 32.6276 35.9804 34.6287Z" fill="#EC003B"/>
<path d="M35.2831 48.6127C37.4435 49.7638 46.0687 49.6617 46.0687 49.6617C46.0687 49.6617 42.1772 42.8776 40.025 41.7265C37.8728 40.5754 35.0589 41.1828 33.7517 43.0843C32.4445 44.9858 33.1254 47.4616 35.2831 48.6127Z" fill="#EC003B"/>
<path d="M46.0057 67.4292C48.5271 67.4623 55.9135 63.5367 55.9135 63.5367C55.9135 63.5367 48.6693 59.412 46.1452 59.3763C43.6211 59.3405 41.5455 61.117 41.4962 63.3402C41.447 65.5633 43.4816 67.3883 46.0057 67.4292Z" fill="#EC003B"/>
<path d="M57.754 80.0454C60.2316 80.4564 68.2661 77.6845 68.2661 77.6845C68.2661 77.6845 61.9162 72.5339 59.4413 72.1306C56.9664 71.7273 54.5735 73.1516 54.1087 75.3466C53.6438 77.5416 55.2736 79.6371 57.754 80.0454Z" fill="#EC003B"/>
<path d="M54.9126 46.3594C54.0512 48.4498 47.2555 53.1362 47.2555 53.1362C47.2555 53.1362 45.456 45.7034 46.3175 43.6129C47.1789 41.5225 49.8015 40.4428 52.1724 41.2008C54.5434 41.9589 55.774 44.2715 54.9126 46.3594Z" fill="#EC003B"/>
<path d="M68.4411 61.2752C66.9097 63.044 58.8369 65.7239 58.8369 65.7239C58.8369 65.7239 59.6573 58.1562 61.1778 56.39C61.9459 55.5331 63.0321 54.9782 64.2194 54.8363C65.4067 54.6943 66.6077 54.9757 67.5824 55.6243C68.0556 55.9286 68.456 56.3212 68.7584 56.7773C69.0608 57.2334 69.2586 57.743 69.3393 58.274C69.42 58.805 69.3818 59.3459 69.2272 59.8625C69.0726 60.379 68.805 60.8601 68.4411 61.2752Z" fill="#EC003B"/>
<path d="M79.3305 77.3631C78.16 79.3336 70.719 83.1776 70.719 83.1776C70.719 83.1776 70.0654 75.5993 71.2358 73.6288C72.4063 71.6583 75.1656 70.8977 77.4025 71.9289C79.6395 72.9601 80.4982 75.3926 79.3305 77.3631Z" fill="#EC003B"/>
<path d="M73.2184 91.776C73.2184 91.776 78.5702 73.4601 70.8529 60.3306C67.6151 54.8225 66.3653 48.5641 67.5248 42.4435C68.0815 39.5333 68.9377 36.6802 70.0817 33.9236" stroke="#535461" stroke-width="2" stroke-miterlimit="10"/>
<path d="M65.0863 25.8623C65.1739 28.0829 69.9896 34.3898 69.9896 34.3898C69.9896 34.3898 74.3049 27.8073 74.2174 25.5842C74.1299 23.361 72.016 21.6229 69.4946 21.6995C66.9733 21.776 64.9961 23.6392 65.0863 25.8623Z" fill="#0074C2"/>
<path d="M58.2079 38.1634C59.6518 39.9858 67.5824 42.972 67.5824 42.972C67.5824 42.972 67.1448 35.3814 65.7009 33.5565C64.9706 32.6725 63.9096 32.0786 62.7301 31.8936C61.5507 31.7085 60.3399 31.946 59.3401 32.5585C58.8542 32.8433 58.4365 33.2188 58.1134 33.6613C57.7903 34.1039 57.5687 34.6039 57.4624 35.1302C57.3561 35.6564 57.3674 36.1975 57.4957 36.7195C57.624 37.2414 57.8665 37.733 58.2079 38.1634Z" fill="#0074C2"/>
<path d="M59.3563 59.1873C61.648 60.1189 70.2075 59.1695 70.2075 59.1695C70.2075 59.1695 65.4793 52.8091 63.1876 51.8775C60.896 50.9459 58.1832 51.8265 57.1248 53.8454C56.0665 55.8642 57.0674 58.2557 59.3563 59.1873Z" fill="#0074C2"/>
<path d="M64.2926 74.9231C66.3737 76.1841 74.9907 76.5184 74.9907 76.5184C74.9907 76.5184 71.5505 69.5477 69.4721 68.2893C68.4704 67.6803 67.2592 67.4471 66.0811 67.6364C64.9031 67.8258 63.8452 68.4237 63.1194 69.3103C62.7785 69.7433 62.5374 70.2376 62.4114 70.7619C62.2855 71.2863 62.2774 71.8293 62.3876 72.3568C62.4979 72.8842 62.7241 73.3846 63.0519 73.8263C63.3798 74.268 63.8023 74.6415 64.2926 74.9231Z" fill="#0074C2"/>
<path d="M77.1893 43.1124C75.4391 44.7153 67.071 46.5759 67.071 46.5759C67.071 46.5759 68.8458 39.1359 70.5933 37.533C71.458 36.7595 72.6032 36.3185 73.8008 36.2976C74.9983 36.2768 76.1603 36.6778 77.0553 37.4207C77.4854 37.7744 77.8323 38.2074 78.074 38.6925C78.3158 39.1776 78.4471 39.7043 78.4596 40.2391C78.4722 40.774 78.3659 41.3055 78.1472 41.8001C77.9286 42.2946 77.6024 42.7415 77.1893 43.1124Z" fill="#0074C2"/>
<path d="M82.6862 61.5792C80.4738 62.6487 71.8623 62.2174 71.8623 62.2174C71.8623 62.2174 76.0819 55.581 78.2943 54.5192C80.5066 53.4574 83.2851 54.1644 84.4965 56.1145C85.708 58.0645 84.9095 60.5098 82.6862 61.5792Z" fill="#0074C2"/>
<path d="M85.2539 80.176C83.2767 81.5594 74.7062 82.417 74.7062 82.417C74.7062 82.417 77.5941 75.2525 79.5712 73.8691C80.5323 73.2034 81.7271 72.9007 82.917 73.0213C84.1068 73.142 85.204 73.6772 85.9895 74.5199C86.361 74.9277 86.6379 75.4029 86.8029 75.9155C86.9679 76.428 87.0174 76.967 86.9483 77.4983C86.8792 78.0296 86.693 78.5418 86.4014 79.0027C86.1098 79.4635 85.7191 79.863 85.2539 80.176Z" fill="#0074C2"/>
<path d="M271.336 96.5227C271.5 96.1041 270.27 93.7839 270.27 93.6691C270.27 93.5542 268.998 92.2602 268.998 91.5378C268.998 90.8155 267.314 89.256 267.314 89.256C267.314 89.256 265.057 88.3805 264.811 86.479C264.565 84.5775 262.107 84.5366 262.101 84.5366C262.101 84.5366 262.101 84.3631 262.118 84.1002C262.118 83.508 262.098 82.4513 261.814 81.8745C261.521 81.3494 261.02 80.9526 260.417 80.7693C260.417 80.7693 260.171 79.2864 259.678 78.8295C259.403 78.5613 259.206 78.2322 259.105 77.8732C259.004 77.5141 259.003 77.137 259.101 76.7774C259.347 76.055 258.773 74.225 257.581 73.9697C256.388 73.7145 255.038 73.2857 255.038 73.2857C255.038 73.2857 254.904 73.3087 254.709 73.3342L254.545 73.2857C254.26 73.3348 253.971 73.3681 253.681 73.3852C253.43 73.3936 253.183 73.3175 252.986 73.1708C252.574 72.7522 249.248 71.9533 248.633 71.9533C248.018 71.9533 246.251 71.1876 246.251 71.1876L244.49 69.9318C243.995 69.5796 243.079 68.1452 242.945 67.9435L242.928 67.9155C242.777 67.5913 242.653 67.2568 242.556 66.9149C243.157 66.3291 243.67 65.6707 244.082 64.9572C244.126 64.8832 244.164 64.8066 244.203 64.7326C244.295 64.7311 244.388 64.7174 244.476 64.6918C244.512 64.6918 244.547 64.6663 244.583 64.6535C244.999 64.4489 245.313 64.0996 245.455 63.681C245.485 63.5994 245.513 63.5151 245.534 63.4258C245.534 63.3977 245.534 63.3671 245.554 63.339C245.573 63.3109 245.581 63.2242 245.592 63.1655C245.603 63.1068 245.606 63.0991 245.611 63.0685C245.617 63.0378 245.63 62.9536 245.638 62.8949C245.647 62.8362 245.638 62.8311 245.638 62.8005C245.638 62.7264 245.658 62.655 245.668 62.5835C245.696 62.3136 245.739 62.0452 245.797 61.7795C246.043 60.7585 246.708 59.8754 247.181 58.9208C247.249 58.7856 247.312 58.6452 247.369 58.5048C247.427 58.3644 247.484 58.1985 247.531 58.0428L247.572 57.8999C247.602 57.7876 247.629 57.6727 247.654 57.5579C247.654 57.5068 247.676 57.4558 247.684 57.4047C247.711 57.2465 247.736 57.0882 247.75 56.9274C247.838 56.0158 247.698 55.0976 247.342 54.2448C247.033 53.5302 246.576 52.887 246.265 52.1723C245.792 51.0901 245.668 49.8751 245.091 48.8338C244.126 47.1033 241.851 46.238 239.98 46.8888C239.086 47.1977 238.312 47.8001 237.407 48.0706C236.193 48.4305 234.897 48.1599 233.641 47.9966C232.386 47.8332 230.997 47.8205 229.988 48.5862C228.826 49.4668 228.506 51.1233 227.414 52.0906C226.958 52.4965 226.386 52.7568 225.902 53.132C225.562 53.3862 225.301 53.72 225.145 54.0994C225.145 54.1274 225.125 54.153 225.117 54.181C225.109 54.2091 225.098 54.2448 225.09 54.278C225.082 54.3112 225.074 54.3546 225.068 54.3929C225.063 54.4312 225.068 54.4465 225.068 54.472C225.063 54.54 225.063 54.6082 225.068 54.6762C225.076 54.7406 225.088 54.8045 225.104 54.8676C225.104 54.8855 225.104 54.9034 225.104 54.9212C225.104 54.9391 225.136 55.0259 225.156 55.0795C225.154 55.0897 225.154 55.0999 225.156 55.1101C225.177 55.1688 225.202 55.225 225.227 55.2837L225.268 55.3704L225.301 55.4419C225.461 55.7227 225.588 56.0188 225.681 56.325C225.732 56.5188 225.719 56.7224 225.645 56.9095C225.534 57.1213 225.379 57.3104 225.188 57.466C224.372 58.2589 223.741 59.2021 223.337 60.2353C223.291 60.3527 223.244 60.4701 223.203 60.5926L223.26 60.6054C223.378 60.6388 223.497 60.6636 223.619 60.6794C223.687 60.6794 223.755 60.6947 223.827 60.6998C224.107 60.7137 224.388 60.6931 224.663 60.6386C224.732 60.6258 224.803 60.6105 224.871 60.5926C225.153 60.52 225.427 60.4253 225.692 60.3093C225.692 60.3859 225.692 60.465 225.692 60.5416C225.692 60.6182 225.692 60.6284 225.692 60.6718C225.694 62.3546 226.2 64.0034 227.151 65.4331C228.102 66.8628 229.461 68.0167 231.076 68.7654C231.076 68.8471 231.101 68.9313 231.112 69.0206C231.123 69.11 231.131 69.1585 231.139 69.2274L231.03 69.1278C231.03 69.1278 230.289 68.7858 229.591 69.7736C228.894 70.7614 227.581 71.2208 227.581 71.2208C227.581 71.2208 220.11 72.3234 219.823 73.2372L216.333 73.4261C216.333 73.4261 215.1 73.5792 214.966 75.9785C214.832 78.3777 214.187 78.6049 214.187 78.6049C214.187 78.6049 212.751 80.9633 212.874 82.1782C212.997 83.3932 211.78 84.0057 211.78 84.0057L211.616 86.1727C211.616 86.1727 210.249 85.9838 209.891 87.4668C209.532 88.9497 208.865 89.6363 208.865 89.6363C208.865 89.6363 206.606 91.3872 206.483 92.8702L205.088 93.6691C205.088 93.6691 201.845 92.9851 201.107 91.7676L200.88 91.5685C200.872 91.5588 200.866 91.5486 200.861 91.5378C200.86 91.5429 200.86 91.5481 200.861 91.5532C200.374 91.1244 199.346 90.231 199.493 90.4352C199.589 90.6265 199.612 90.8426 199.559 91.0478L199.318 90.7925L198.673 90.1238C198.673 90.1238 193.43 85.5295 190.351 85.1773C190.31 85.1033 190.113 84.3809 189.588 84.8327C189.152 85.2048 188.803 85.6572 188.564 86.1613C188.324 86.6654 188.199 87.2103 188.196 87.7618C188.193 88.3133 188.313 88.8593 188.547 89.3656C188.782 89.8718 189.126 90.3272 189.558 90.7032L194.467 94.9836L194.593 95.0704L195.648 96.3465C195.471 96.7447 195.32 97.1301 195.197 97.4824C195.197 97.4824 195.197 97.5053 195.183 97.5155C195.159 97.5921 195.131 97.6636 195.107 97.735L195.082 97.8116C195.06 97.8831 195.036 97.9546 195.014 98.0209C194.992 98.0873 194.989 98.1051 194.976 98.146C194.962 98.1868 194.976 98.1945 194.954 98.2174C194.839 98.6003 194.762 98.8938 194.724 99.0572L194.451 98.9781L194.724 99.0853C194.724 99.098 194.724 99.1133 194.724 99.1261L194.708 99.2052L194.959 99.3073C196.398 99.8918 203.576 102.83 203.945 103.276C204.356 103.769 207.063 105.216 209.527 103.999C211.991 102.781 212.535 100.915 212.535 100.915C212.535 100.915 214.914 97.8346 214.996 97.3777C215.078 96.9208 216.927 96.3874 216.927 96.3874C216.927 96.3874 217.091 101.492 216.148 103.35C215.204 105.208 213.437 113.473 213.437 113.473C213.553 113.452 213.67 113.445 213.787 113.453C213.722 113.751 213.684 113.93 213.684 113.93C213.827 113.906 213.975 113.906 214.118 113.93C213.987 114.869 213.232 119.229 213.232 119.229C213.232 119.229 212.986 121.207 212.576 121.891C212.166 122.575 212.125 126.153 212.125 126.153L211.468 128.739C211.543 128.892 211.626 129.041 211.717 129.186C211.717 129.186 212.423 130.646 213.607 131.465C213.553 131.872 213.442 132.27 213.276 132.649C213.019 133.226 212.907 133.85 212.948 134.474C212.948 134.474 212.251 137.404 212.333 138.242C212.415 139.079 211.881 141.133 211.881 141.133L211.118 147.734C211.118 147.734 210.626 153.479 210.872 155.041C211.118 156.603 210.706 158.73 210.706 158.73C210.706 158.73 211.198 163.258 211.075 163.753C210.952 164.248 210.336 166.377 210.706 167.558C211.075 168.74 210.872 171.971 210.872 171.971C210.872 171.971 211.118 176.231 211.403 177.602C211.687 178.973 211.321 180.724 211.321 180.724C211.321 180.724 211.047 183.651 210.911 183.651C210.774 183.651 209.721 185.668 211.895 187.648C214.069 189.629 212.716 189.32 212.716 189.32C212.716 189.32 210.993 188.521 211.195 190.157C211.392 191.714 211.663 191.308 211.687 191.265L211.277 192.516L211.551 192.554L211.313 192.809C211.066 193.1 210.792 193.368 210.492 193.611C209.997 193.953 209.945 194.713 209.945 194.713C209.945 194.713 206.91 197.796 204.077 199.356C202.586 200.178 201.301 200.872 200.74 201.446C200.234 201.957 200.316 202.381 201.367 202.705C203.584 203.389 207.481 203.726 210.273 202.858C211.938 202.339 213.434 201.435 214.624 200.231C214.624 200.231 216.391 199.394 218.117 199.698C219.842 200.002 223.288 197.911 223.288 197.911L223.225 197.37L223.042 195.816C222.926 195.685 222.84 195.533 222.791 195.369C222.741 195.206 222.729 195.035 222.755 194.866C222.775 194.406 222.726 193.946 222.61 193.498C222.582 193.348 222.549 193.197 222.519 193.057L222.834 193.003C222.834 193.003 222.426 191.061 223.165 190.68C223.903 190.3 223.695 185.32 223.695 185.32C223.695 185.32 222.755 184.179 222.26 183.991C221.765 183.802 222.219 181.438 222.303 181.134C222.388 180.831 223.042 174.932 223.042 174.932C223.042 174.932 222.796 173.069 223.124 172.27C223.452 171.471 222.73 168.408 222.73 168.408C222.73 168.408 222.484 168.028 222.938 167.571C223.392 167.114 223.211 163.043 223.211 163.043C223.211 163.043 223.173 160.988 223.173 160.455C223.173 159.922 223.665 157.982 224.116 157.336C224.568 156.69 224.28 154.671 224.28 154.671L224.305 154.521C224.305 154.462 224.327 154.39 224.343 154.304L224.379 154.102C224.579 152.981 224.85 151.872 225.191 150.781C225.738 149.184 226.34 146.368 226.34 146.368L230.168 137.078L230.212 136.968C230.212 136.968 231.976 140.013 231.976 142.838C231.976 142.838 232.427 146.225 232.304 147.139C232.181 148.053 232.668 152.328 232.668 152.328C232.668 152.328 233.201 158.492 233.201 158.76C233.201 159.028 233.857 163.783 234.27 164.506C234.683 165.228 233.857 167.436 233.611 167.663C233.365 167.89 233.693 173.485 233.693 173.485C233.693 173.485 233.078 177.898 232.955 178.812C232.832 179.726 232.34 183.227 232.75 184.595C233.16 185.964 232.996 186.155 232.996 186.155C232.996 186.155 234.475 187.564 233.611 187.686C233.297 187.75 233.001 187.876 232.743 188.056C232.486 188.235 232.272 188.464 232.117 188.726C231.961 188.989 231.868 189.28 231.843 189.579C231.817 189.878 231.861 190.179 231.97 190.461C232.482 191.856 233.085 193.22 233.778 194.545C233.778 194.545 234.032 194.491 234.456 194.412V194.864L234.505 197.13C234.505 197.13 234.779 199.3 234.629 199.795C234.508 200.157 234.355 201.862 234.265 202.753C234.235 203.077 234.218 203.294 234.218 203.294C234.218 203.294 234.218 205.311 238.774 204.703C243.33 204.096 244.151 202.421 244.151 202.421C244.151 202.421 244.151 202.342 244.184 202.212C244.252 201.827 244.4 201.01 244.52 200.556C244.684 199.946 243.207 197.207 243.207 197.207C243.207 197.207 242.961 195.344 242.548 194.925C242.379 194.684 242.267 194.411 242.22 194.126C242.182 193.973 242.149 193.812 242.122 193.656C242.224 193.669 242.325 193.686 242.425 193.708C242.425 193.708 242.179 192.375 243.125 191.957C244.071 191.538 243.823 190.665 243.699 190.282C243.576 189.899 244.069 187.771 244.069 187.771C244.003 187.559 243.998 187.335 244.056 187.122C244.114 186.908 244.231 186.713 244.397 186.556C244.974 186.02 245.422 182.293 245.422 182.293L245.504 167.911C245.504 167.911 245.794 165.358 245.466 164.337C245.138 163.316 244.807 161.333 245.258 160.8C245.709 160.266 245.299 157.795 245.299 157.795C245.299 157.795 245.299 152.581 245.917 151.289C246.535 149.998 246.328 141.815 246.328 141.815L246.489 136.455C246.489 136.455 247.832 135.271 247.514 129.096C248.945 129.012 250.558 128.964 250.796 129.147C251.247 129.492 254.162 131.24 255.885 130.138C256.254 129.985 257.936 128.655 257.936 128.655L257.214 117.246C257.666 117.881 257.939 118.305 257.939 118.305C257.939 116.707 262.782 111.531 262.782 111.531C262.782 111.531 267.297 106.092 268.282 105.443C269.266 104.795 271.197 101.372 271.197 101.372C271.482 100.719 271.812 100.084 272.184 99.4707C272.652 98.7688 271.172 96.9412 271.336 96.5227ZM260.742 100.515C259.511 100.629 256.913 103.256 256.883 103.833C256.864 104.134 256.591 104.537 256.336 104.854C256.317 104.624 256.295 104.389 256.276 104.152C255.986 100.79 255.672 96.6937 255.814 96.2955C256.063 95.6115 255.978 92.5307 255.978 92.5307L256.022 92.472C256.842 94.8585 259.421 97.6738 259.421 97.6738C259.421 97.6738 259.872 98.8913 260.406 98.9296C260.939 98.9679 260.742 100.515 260.742 100.515Z" fill="url(#paint0_linear)"/>
<path d="M194.929 99.6498C194.929 99.6498 196.425 92.3245 201.241 92.2863L204.76 99.0449L202.414 100.556C202.414 100.556 197.317 100.706 194.929 99.6498Z" fill="#333333"/>
<path opacity="0.1" d="M204.76 99.0448L202.414 100.556C202.414 100.556 198.826 100.663 196.261 100.073C195.804 99.9722 195.358 99.8303 194.929 99.6497C194.929 99.6497 194.929 99.6089 194.957 99.5323C194.957 99.5323 194.957 99.5144 194.957 99.5042C195.177 98.5849 195.482 97.6849 195.867 96.814C196.018 96.4847 196.184 96.1453 196.365 95.8058C197.07 94.5296 198.06 93.2993 199.417 92.6842C199.918 92.4545 200.464 92.3217 201.022 92.2937H201.164H201.235L201.312 92.4443L202.501 94.7261L204.76 99.0448Z" fill="black"/>
<path opacity="0.1" d="M223.433 204.471C236.473 204.471 247.044 203.464 247.044 202.222C247.044 200.981 236.473 199.974 223.433 199.974C210.393 199.974 199.821 200.981 199.821 202.222C199.821 203.464 210.393 204.471 223.433 204.471Z" fill="white"/>
<path opacity="0.1" d="M35.6113 205.497C48.6514 205.497 59.2226 204.49 59.2226 203.248C59.2226 202.007 48.6514 201 35.6113 201C22.5711 201 12 202.007 12 203.248C12 204.49 22.5711 205.497 35.6113 205.497Z" fill="white"/>
<path d="M244.73 129.479C244.73 129.479 249.789 129.027 250.232 129.367C250.676 129.706 253.55 131.442 255.251 130.347C256.952 129.252 255.817 125.439 255.817 125.288C255.817 125.137 255.655 119.737 255.655 119.737L252.62 115.923L248.819 109.241L241.052 108.521L241.254 119.134L241.213 124.571L244.73 129.479Z" fill="#333333"/>
<path opacity="0.1" d="M244.73 129.479C244.73 129.479 249.789 129.027 250.232 129.367C250.676 129.706 253.55 131.442 255.251 130.347C256.952 129.252 255.817 125.439 255.817 125.288C255.817 125.137 255.655 119.737 255.655 119.737L252.62 115.923L248.819 109.241L241.052 108.521L241.254 119.134L241.213 124.571L244.73 129.479Z" fill="black"/>
<path d="M200.229 92.0918C200.229 92.0918 199.824 96.6989 196.75 96.773C196.75 96.773 195.878 96.2829 194.705 95.4661C192.003 93.5798 187.718 89.9528 188.902 86.5785C190.6 81.7467 198.853 90.6624 198.853 90.6624L199.485 91.326L200.229 92.0918Z" fill="#FBBEBE"/>
<path opacity="0.1" d="M200.229 92.0917C200.229 92.0917 199.824 96.699 196.75 96.773C196.75 96.773 195.878 96.2829 194.705 95.4661L194.445 95.1522C194.967 95.4061 195.542 95.5507 196.13 95.5759C196.592 95.5931 197.049 95.4785 197.44 95.2473C197.831 95.0161 198.137 94.6793 198.317 94.2818C198.641 93.6894 198.925 93.0791 199.168 92.4542C199.318 92.09 199.424 91.7117 199.485 91.3259L200.229 92.0917Z" fill="black"/>
<path d="M198.894 100.443L198.202 99.6112L195.872 96.8037L194.686 95.3718C195.207 95.6271 195.782 95.7717 196.37 95.7955C197.144 95.8134 198.011 95.5403 198.558 94.504C198.881 93.9106 199.165 93.2995 199.408 92.674C199.791 91.6531 199.786 91.1426 199.649 90.9563C199.512 90.77 200.508 91.6403 200.986 92.064L201.003 92.0793L201.227 92.2759L201.309 92.429L202.482 94.6163C202.482 94.6163 202.482 94.647 202.482 94.7082C202.597 95.4101 202.994 99.8179 198.894 100.443Z" fill="#F4F7FF"/>
<path d="M223.129 197.636C223.129 197.636 219.73 199.714 218.032 199.423C216.333 199.132 214.591 199.953 214.591 199.953C213.42 201.147 211.944 202.043 210.301 202.559C207.566 203.427 203.71 203.085 201.525 202.406C200.491 202.085 200.407 201.671 200.904 201.158C201.451 200.586 202.726 199.9 204.186 199.083C206.978 197.536 209.97 194.489 209.97 194.489C209.97 194.489 210.011 193.723 210.498 193.397C210.797 193.156 211.072 192.889 211.318 192.6C211.753 192.12 212.16 191.62 212.16 191.62L222.158 191.891C222.158 191.891 222.328 192.562 222.462 193.248C222.576 193.694 222.623 194.152 222.601 194.609C222.576 194.775 222.587 194.944 222.634 195.106C222.681 195.268 222.763 195.419 222.875 195.551L223.055 197.082L223.129 197.636Z" fill="#333333"/>
<path d="M244.044 200.242C243.924 200.694 243.771 201.503 243.713 201.883L243.678 202.092C243.678 202.092 242.857 203.754 238.38 204.359C233.904 204.964 233.89 202.96 233.89 202.96C233.89 202.96 233.907 202.746 233.934 202.422C234.013 201.539 234.175 199.846 234.295 199.486C234.453 198.996 234.172 196.842 234.172 196.842L234.125 194.593L234.09 193.031L241.536 192.312C241.582 192.831 241.663 193.348 241.777 193.858C241.823 194.142 241.934 194.413 242.102 194.652C242.507 195.068 242.748 196.919 242.748 196.919C242.748 196.919 244.205 199.637 244.044 200.242Z" fill="#333333"/>
<path opacity="0.1" d="M222.159 191.891C222.159 191.891 222.328 192.561 222.462 193.248C221.382 193.434 216.662 194.197 215.483 193.663C214.146 193.059 211.274 192.72 211.274 192.72L211.321 192.567C211.756 192.087 212.163 191.587 212.163 191.587L222.159 191.891Z" fill="black"/>
<path opacity="0.1" d="M241.777 193.858C239.89 193.559 235.761 194.281 234.12 194.592L234.084 193.031L241.531 192.312C241.579 192.831 241.661 193.348 241.777 193.858Z" fill="black"/>
<path d="M245.975 136.616L245.813 141.94C245.813 141.94 246.016 150.059 245.409 151.343C244.801 152.627 244.801 157.801 244.801 157.801C244.801 157.801 245.206 160.254 244.76 160.782C244.315 161.31 244.64 163.273 244.963 164.294C245.285 165.315 245.004 167.844 245.004 167.844L244.922 182.117C244.922 182.117 244.479 185.816 243.91 186.347C243.747 186.503 243.631 186.698 243.574 186.91C243.518 187.122 243.522 187.344 243.587 187.554C243.587 187.554 243.103 189.667 243.224 190.048C243.344 190.428 243.587 191.293 242.657 191.707C241.728 192.12 241.968 193.445 241.968 193.445C239.745 192.952 233.433 194.277 233.433 194.277C232.751 192.965 232.157 191.614 231.653 190.234C231.544 189.954 231.501 189.657 231.525 189.36C231.55 189.064 231.641 188.776 231.795 188.515C231.948 188.254 232.159 188.027 232.414 187.849C232.668 187.67 232.961 187.544 233.272 187.48C234.12 187.365 232.665 185.969 232.665 185.969C232.665 185.969 232.826 185.78 232.422 184.422C232.017 183.064 232.501 179.573 232.624 178.679C232.747 177.786 233.351 173.393 233.351 173.393C233.351 173.393 233.029 167.844 233.272 167.617C233.515 167.39 234.322 165.2 233.92 164.483C233.518 163.766 232.865 159.046 232.865 158.781C232.865 158.515 232.342 152.4 232.342 152.4C232.342 152.4 231.855 148.132 231.978 147.226C232.102 146.32 231.653 142.961 231.653 142.961C231.653 140.153 229.914 137.144 229.914 137.144L229.87 137.254L226.121 146.473C226.121 146.473 225.514 149.265 224.989 150.851C224.657 151.928 224.393 153.024 224.198 154.13L224.163 154.332C224.163 154.416 224.135 154.488 224.127 154.544L224.103 154.697C224.103 154.697 224.376 156.698 223.938 157.341C223.501 157.984 223.009 159.909 223.009 160.437C223.009 160.966 223.05 163.005 223.05 163.005C223.05 163.005 223.211 167.045 222.776 167.5C222.341 167.954 222.571 168.329 222.571 168.329C222.571 168.329 223.299 171.392 222.976 172.181C222.653 172.97 222.897 174.823 222.897 174.823C222.897 174.823 222.248 180.678 222.169 180.979C222.09 181.28 221.641 183.623 222.128 183.812C222.615 184.001 223.542 185.132 223.542 185.132C223.542 185.132 223.747 190.081 223.017 190.456C222.287 190.831 222.691 192.753 222.691 192.753C222.691 192.753 216.828 193.81 215.494 193.205C214.159 192.6 211.285 192.26 211.285 192.26L211.687 191.02C211.662 191.063 211.394 191.467 211.203 189.92C211.003 188.297 212.702 189.088 212.702 189.088C212.702 189.088 214.036 189.392 211.881 187.429C209.726 185.466 210.787 183.462 210.91 183.462C211.033 183.462 211.318 180.558 211.318 180.558C211.318 180.558 211.682 178.82 211.397 177.459C211.113 176.099 210.872 171.869 210.872 171.869C210.872 171.869 211.075 168.661 210.711 167.492C210.347 166.323 210.951 164.205 211.075 163.715C211.198 163.224 210.697 158.742 210.697 158.742C210.697 158.742 211.102 156.629 210.858 155.082C210.615 153.536 211.102 147.831 211.102 147.831L211.829 141.261C211.829 141.261 212.354 139.219 212.275 138.39C212.196 137.56 212.885 134.653 212.885 134.653C212.844 134.034 212.954 133.414 213.208 132.841C213.612 132.075 213.774 129.594 213.774 129.594L217.66 121.286L219.574 113.961L245.261 113.734C245.261 113.734 245.357 114.369 245.512 115.52C245.668 116.671 245.887 118.382 246.131 120.492C246.355 122.409 246.601 124.663 246.839 127.172C247.615 135.181 245.975 136.616 245.975 136.616Z" fill="#0074C2"/>
<path d="M243.598 70.4986L237.609 76.4662C237.609 76.4662 229.925 73.5947 230.734 72.6146C231.046 72.2343 231.008 71.0346 230.816 69.7125C230.543 67.6195 229.925 65.2125 229.925 65.2125C229.925 65.2125 243.355 63.1706 242.231 65.2866C241.818 66.0523 241.889 66.9609 242.146 67.7956C242.472 68.7635 242.962 69.6762 243.598 70.4986Z" fill="#FBBEBE"/>
<path opacity="0.1" d="M242.223 65.2916C241.81 66.0573 241.613 66.139 241.87 66.9736C240.114 68.727 237.88 70.6515 235.102 70.6515C233.615 70.6536 232.148 70.3329 230.816 69.7148C230.543 67.6219 229.925 65.2151 229.925 65.2151C229.925 65.2151 243.355 63.1732 242.223 65.2916Z" fill="black"/>
<path d="M244.733 61.435C244.691 63.7927 243.657 66.0403 241.856 67.6935C240.055 69.3468 237.629 70.2732 235.103 70.2732C232.577 70.2732 230.151 69.3468 228.35 67.6935C226.549 66.0403 225.515 63.7927 225.473 61.435C225.473 61.3916 225.473 61.3482 225.473 61.3074C225.491 58.9238 226.523 56.6446 228.341 54.9712C229.242 54.1426 230.308 53.4876 231.48 53.0437C232.652 52.5998 233.905 52.3756 235.17 52.384C236.434 52.3924 237.685 52.6332 238.85 53.0925C240.014 53.5519 241.071 54.221 241.959 55.0614C242.846 55.9019 243.548 56.8973 244.024 57.9909C244.499 59.0845 244.739 60.2548 244.73 61.435H244.733Z" fill="#FBBEBE"/>
<path opacity="0.1" d="M246.125 120.725C244.851 120.725 240.604 120.768 235.856 120.837H235.799L234.232 120.862H234.183C228.555 120.947 223.006 119.921 220.783 120.115C216.052 120.528 222.484 116.031 222.484 116.031C226.011 116.831 229.639 117.174 233.267 117.052L234.634 116.985C238.933 116.758 243.257 116.38 245.515 115.747C245.666 116.916 245.882 118.614 246.125 120.725Z" fill="black"/>
<path d="M246.125 120.498C244.851 120.498 240.604 120.541 235.856 120.61H235.799L234.232 120.635H234.183C228.555 120.72 223.006 119.694 220.783 119.888C216.052 120.304 222.484 115.804 222.484 115.804C226.011 116.604 229.639 116.947 233.267 116.825L234.634 116.758C238.933 116.531 243.257 116.154 245.515 115.523C245.666 116.692 245.882 118.382 246.125 120.498Z" fill="#5F5D7E"/>
<path opacity="0.1" d="M232.515 72.9897L225.071 76.2389L219.328 117.698C219.328 117.698 222.724 116.263 224.669 117.169C226.613 118.075 232.599 117.246 232.599 117.246C232.599 117.246 236.975 117.019 237.617 117.473C238.26 117.927 245.865 115.574 245.865 115.574C245.865 115.574 247.233 112.705 246.188 112.256C245.143 111.807 246.522 107.353 246.522 107.353L245.865 77.4462L244.569 73.5946L241.091 71.6318L237.535 74.2736L235.837 74.5007L232.515 72.9897Z" fill="black"/>
<path d="M232.515 72.5376L225.071 75.7842L219.328 117.246C219.328 117.246 222.724 115.811 224.669 116.717C226.613 117.623 232.599 116.791 232.599 116.791C232.599 116.791 236.975 116.567 237.617 117.019C238.26 117.47 245.871 115.13 245.871 115.13C245.871 115.13 247.238 112.261 246.193 111.812C245.149 111.362 246.522 106.896 246.522 106.896L245.865 76.9915L244.569 73.1425L241.091 71.1771L237.535 73.8214L235.837 74.0486L232.515 72.5376Z" fill="#F4F7FF"/>
<path opacity="0.1" d="M232.391 74.4624C232.391 74.4624 234.535 76.8412 234.497 77.3339C234.459 77.8265 234.374 78.9955 234.374 78.9955L232.755 82.0584C232.755 82.0584 231.866 85.8717 231.866 86.6655C231.866 87.4593 230.45 94.3227 230.45 94.3227L228.746 104.897L226.602 118.757L228.79 122.266L231.377 120.225L234.817 95.5274L235.544 90.6574C235.544 90.6574 236.313 81.8976 236.313 80.9915C236.313 80.0854 235.87 77.7065 235.87 77.7065C235.87 77.7065 236.395 75.44 238.58 74.8989C240.765 74.3578 238.419 74.784 238.419 74.784L237.163 73.8422L236.07 74.2557C236.07 74.2557 233.04 73.4057 232.391 74.4624Z" fill="black"/>
<path d="M232.148 74.2382C232.148 74.2382 234.295 76.617 234.254 77.1071C234.213 77.5972 234.131 78.7687 234.131 78.7687L232.515 81.8315C232.515 81.8315 231.623 85.6448 231.623 86.4386C231.623 87.2324 230.207 94.0957 230.207 94.0957L228.508 104.668L226.364 118.527L228.552 122.039L231.142 119.997L234.579 95.303L235.31 90.4356C235.31 90.4356 236.078 81.6759 236.078 80.7698C236.078 79.8637 235.635 77.4848 235.635 77.4848C235.635 77.4848 236.16 75.2183 238.345 74.69C240.53 74.1616 238.184 74.5777 238.184 74.5777L236.928 73.6333L235.835 74.0493C235.835 74.0493 232.796 73.179 232.148 74.2382Z" fill="#EC003B"/>
<path opacity="0.1" d="M230.734 70.2715C230.734 70.2715 230.409 70.4986 230.329 72.0096C230.25 73.5205 229.115 76.9175 229.115 76.9175C229.115 76.9175 233.324 74.1994 235.427 74.5005L230.734 70.2715Z" fill="black"/>
<path d="M230.734 69.8197C230.734 69.8197 230.409 70.0443 230.329 71.5552C230.25 73.0662 229.115 76.4632 229.115 76.4632C229.115 76.4632 233.324 73.7451 235.427 74.0488L230.734 69.8197Z" fill="#F4F7FF"/>
<path opacity="0.1" d="M242.223 69.0646L235.583 74.5011C235.583 74.5011 241.167 77.5971 241.895 78.3526C242.622 79.1081 243.35 70.9508 243.35 70.9508L242.223 69.0646Z" fill="black"/>
<path d="M242.466 68.6099L235.832 74.0489C235.832 74.0489 241.413 77.1449 242.146 77.9004C242.879 78.6559 243.601 70.4986 243.601 70.4986L242.466 68.6099Z" fill="#F4F7FF"/>
<path opacity="0.1" d="M230.975 70.2714C230.975 70.2714 230.247 69.9319 229.561 70.9146C229.056 71.5552 228.369 72.0518 227.578 72.349C227.578 72.349 220.214 73.444 219.921 74.3501L216.481 74.539C216.481 74.539 215.267 74.6896 215.147 77.0684C215.026 79.4473 214.378 79.6744 214.378 79.6744C214.378 79.6744 212.962 82.015 213.085 83.2223C213.208 84.4296 211.991 85.037 211.991 85.037L217.047 97.309C217.047 97.309 217.211 102.368 216.279 104.218C215.346 106.069 213.61 114.262 213.61 114.262C213.61 114.262 214.337 114.111 214.296 114.563C214.255 115.015 213.432 119.964 213.432 119.964C213.432 119.964 213.188 121.927 212.784 122.608C212.379 123.29 212.338 126.835 212.338 126.835L211.693 129.403C211.693 129.403 213.23 132.614 215.576 132.159C217.922 131.705 222.169 123.137 222.169 123.137L224.882 113.884L226.985 104.747L227.592 98.5545L228.563 84.8482L229.979 75.7846C229.979 75.7846 231.544 70.9069 230.975 70.2714Z" fill="black"/>
<path d="M230.734 69.8198C230.734 69.8198 230.004 69.4803 229.318 70.4604C228.813 71.1019 228.126 71.5987 227.335 71.8949C227.335 71.8949 219.973 72.9899 219.678 73.896L216.238 74.0848C216.238 74.0848 215.026 74.238 214.903 76.6168C214.78 78.9956 214.135 79.2203 214.135 79.2203C214.135 79.2203 212.718 81.5634 212.841 82.7706C212.964 83.9779 211.747 84.5828 211.747 84.5828L216.806 96.8547C216.806 96.8547 216.968 101.914 216.038 103.764C215.108 105.615 213.366 113.81 213.366 113.81C213.366 113.81 214.094 113.657 214.055 114.111C214.017 114.566 213.164 119.51 213.164 119.51C213.164 119.51 212.92 121.475 212.516 122.154C212.111 122.833 212.073 126.383 212.073 126.383L211.425 128.951C211.425 128.951 212.961 132.159 215.308 131.708C217.654 131.256 221.909 122.682 221.909 122.682L224.619 113.433L226.722 104.295L227.33 98.1003L228.3 84.394L229.717 75.333C229.717 75.333 231.3 70.4604 230.734 69.8198Z" fill="#333333"/>
<path opacity="0.1" d="M204.76 99.0447L202.414 100.556C202.414 100.556 198.826 100.663 196.261 100.073L194.956 99.5322L194.683 99.425L194.956 99.5041C196.31 99.8793 197.368 99.8716 198.197 99.6113C201.517 98.5674 201.15 93.4498 201.022 92.2935C201.022 92.1761 201 92.1021 200.994 92.074C200.994 92.0689 200.994 92.0638 200.994 92.0587L201.014 92.0893C201.059 92.1591 201.111 92.2256 201.167 92.2884C201.213 92.3369 201.262 92.388 201.314 92.4365L202.488 94.6239C202.488 94.6239 202.488 94.6545 202.488 94.7158L204.76 99.0447Z" fill="black"/>
<path d="M212.885 84.2817L211.75 84.5829L211.589 86.7346C211.589 86.7346 210.254 86.5457 209.891 88.0108C209.527 89.4759 208.879 90.165 208.879 90.165C208.879 90.165 206.653 91.9006 206.532 93.3734L205.165 94.1672C205.165 94.1672 201.968 93.4857 201.241 92.2784C201.241 92.2784 202.698 102.021 194.929 99.642C194.929 99.642 203.628 103.19 204.033 103.682C204.438 104.175 207.107 105.607 209.535 104.4C211.964 103.192 212.489 101.337 212.489 101.337C212.489 101.337 214.835 98.2739 214.914 97.8247C214.994 97.3755 216.829 96.8421 216.829 96.8421L220.307 88.9883L212.885 84.2817Z" fill="#333333"/>
<path opacity="0.1" d="M241.293 73.5947L242.466 68.6099C242.466 68.6099 242.991 70.2332 243.519 70.6109L245.258 71.8591C245.258 71.8591 246.998 72.612 247.605 72.612C248.212 72.612 251.488 73.4058 251.893 73.8219C252.297 74.2379 253.916 73.9342 253.916 73.9342C253.916 73.9342 255.251 74.3502 256.424 74.6131C257.597 74.876 258.163 76.6908 257.92 77.4207C257.821 77.778 257.821 78.1528 257.92 78.51C258.019 78.8671 258.214 79.195 258.486 79.4627C258.973 79.917 259.216 81.3897 259.216 81.3897C259.809 81.5723 260.3 81.9658 260.583 82.4847C260.988 83.3142 260.857 85.1264 260.857 85.1264L254.841 93.0567C254.841 93.0567 254.92 96.1196 254.679 96.796C254.439 97.4724 255.527 109.03 255.527 109.03L256.782 128.89C256.782 128.89 255.122 130.212 254.759 130.363C254.395 130.513 254.031 123.341 254.031 123.076C254.031 122.81 244.687 110.01 244.687 110.01C244.687 110.01 243.431 108.124 243.431 107.713C243.431 107.302 242.258 103.483 242.258 103.483L240.478 96.1196L241.293 73.5947Z" fill="black"/>
<path d="M261.374 84.6899C261.374 84.9452 261.374 85.1238 261.374 85.1238L255.357 93.0362C255.357 93.0362 255.439 96.0991 255.199 96.7729C255.057 97.1686 255.366 101.232 255.653 104.57C255.855 106.977 256.047 109.007 256.047 109.007L256.58 117.429L257.299 128.864C257.299 128.864 255.642 130.186 255.278 130.337C254.914 130.487 254.551 123.315 254.551 123.05C254.551 122.784 245.204 109.987 245.204 109.987C245.204 109.987 243.948 108.095 243.948 107.69C243.948 107.284 242.775 103.46 242.775 103.46L240.998 96.0966L241.804 73.5921L242.466 68.6099C242.466 68.6099 243.478 70.2357 244.003 70.6109L245.742 71.8565C245.742 71.8565 247.482 72.6222 248.089 72.6222C248.696 72.6222 251.975 73.4135 252.379 73.8295C252.784 74.2455 254.4 73.9418 254.4 73.9418C254.4 73.9418 255.735 74.3578 256.908 74.6207C258.081 74.8836 258.65 76.6984 258.407 77.4284C258.307 77.7856 258.307 78.1605 258.406 78.5178C258.505 78.875 258.7 79.2028 258.973 79.4703C259.457 79.9221 259.7 81.3948 259.7 81.3948C260.293 81.579 260.784 81.9732 261.067 82.4923C261.357 83.0411 261.385 84.0901 261.374 84.6899Z" fill="#333333"/>
<path opacity="0.1" d="M211.922 185.29C212.122 185.29 220.619 185.591 220.457 186.875C220.296 188.158 211.922 185.29 211.922 185.29Z" fill="black"/>
<path opacity="0.1" d="M213.823 187.441C213.823 187.441 219.528 188.309 218.029 189.103C216.53 189.896 213.823 187.441 213.823 187.441Z" fill="black"/>
<path opacity="0.1" d="M235.036 184.458C235.036 184.458 244.503 185.223 243.087 186.195C241.67 187.168 238.312 187.326 238.164 187.364C238.017 187.402 235.036 184.458 235.036 184.458Z" fill="black"/>
<path opacity="0.1" d="M233.89 188.348C233.89 188.348 239.149 189.177 239.31 190.134C239.472 191.09 233.89 188.348 233.89 188.348Z" fill="black"/>
<path opacity="0.1" d="M236.803 165.616C236.803 165.616 241.616 166.673 241.9 167.403L236.803 165.616Z" fill="black"/>
<path opacity="0.1" d="M218.231 168.863C218.231 168.863 215.724 169.541 218.152 170.904C220.58 172.266 218.231 168.863 218.231 168.863Z" fill="black"/>
<path opacity="0.1" d="M229.359 132.576C229.632 132.576 234.051 131.218 235.588 131.81C236.688 132.196 237.851 132.402 239.026 132.42L229.359 132.576Z" fill="black"/>
<path opacity="0.1" d="M229.925 136.879L229.881 137.254L226.121 146.473C226.121 146.473 225.514 149.265 224.989 150.851C224.657 151.928 224.393 153.024 224.198 154.13L227.538 134.803L229.925 136.879Z" fill="black"/>
<path d="M235.799 120.61L234.232 120.635H234.183L233.264 116.829L234.631 116.76L235.799 120.61Z" fill="#3F3D56"/>
<path d="M254.887 116L253.878 116.766L250.517 119.351C250.517 119.351 241.413 123.884 238.906 119.579C236.696 115.786 247.017 113.078 249.503 112.488C249.839 112.409 250.03 112.368 250.03 112.368L254.887 116Z" fill="#FBBEBE"/>
<path opacity="0.1" d="M216.008 78.8811C216.008 78.8811 217.788 79.6465 218.196 80.6925C218.603 81.7385 216.008 78.8811 216.008 78.8811Z" fill="black"/>
<path opacity="0.1" d="M210.506 90.2084C210.506 90.2084 207.916 93.1538 208.969 94.2922C210.022 95.4306 210.506 90.2084 210.506 90.2084Z" fill="black"/>
<path opacity="0.1" d="M256.788 80.5421C256.788 80.5421 254.359 80.7692 254.28 82.7316L256.788 80.5421Z" fill="black"/>
<path opacity="0.1" d="M234.295 111.506C234.536 111.279 240.12 103.575 241.405 104.257L234.295 111.506Z" fill="black"/>
<path opacity="0.1" d="M244.733 61.4352C244.736 62.9156 244.344 64.3734 243.593 65.6774L243.522 65.6646C242.912 65.5447 242.595 64.881 242.127 64.4675C241.84 64.2124 241.475 64.0476 241.082 63.9963C240.69 63.945 240.29 64.0098 239.939 64.1816C239.586 64.3799 239.298 64.6662 239.109 65.0083C238.919 65.3505 238.836 65.735 238.867 66.119C238.558 64.9091 238.657 63.6252 238.356 62.4128C238.055 61.2003 237.15 59.9751 235.908 59.9547C235.361 59.9547 234.752 60.1359 234.363 59.7633C234.131 59.5387 234.09 59.1839 233.909 58.9082C233.023 57.5707 230.324 58.2471 229.222 58.9337C228.12 59.6203 226.843 60.7205 225.473 61.3075C225.491 58.924 226.523 56.6447 228.341 54.9712C229.242 54.1426 230.308 53.4876 231.48 53.0437C232.652 52.5998 233.905 52.3756 235.17 52.384C236.434 52.3924 237.685 52.6332 238.85 53.0926C240.014 53.552 241.071 54.221 241.959 55.0615C242.846 55.9019 243.548 56.8974 244.024 57.991C244.499 59.0846 244.739 60.2549 244.73 61.4352H244.733Z" fill="black"/>
<path d="M233.912 58.6836C234.087 58.9567 234.133 59.3115 234.366 59.5361C234.751 59.9113 235.378 59.7173 235.911 59.7275C237.153 59.748 238.058 60.9731 238.359 62.1854C238.659 63.3978 238.561 64.6816 238.87 65.8914C238.838 65.5071 238.922 65.1222 239.112 64.7799C239.302 64.4377 239.59 64.1517 239.945 63.9542C240.296 63.7824 240.695 63.7176 241.088 63.7689C241.48 63.8201 241.846 63.9849 242.132 64.2401C242.6 64.6535 242.917 65.3171 243.527 65.4371C244.137 65.5571 244.725 65.0109 244.946 64.4162C245.168 63.8215 245.151 63.1579 245.296 62.5351C245.57 61.3585 246.39 60.3911 246.85 59.2707C247.392 57.9082 247.377 56.4073 246.809 55.0542C246.505 54.3447 246.054 53.7066 245.745 52.9996C245.28 51.9225 245.16 50.7025 244.591 49.6816C243.639 47.9638 241.397 47.1063 239.551 47.752C238.673 48.0583 237.91 48.6555 237.016 48.9235C235.821 49.2834 234.541 49.0128 233.305 48.852C232.069 48.6913 230.699 48.6759 229.703 49.434C228.557 50.3094 228.246 51.9531 227.168 52.9128C226.717 53.3161 226.156 53.5739 225.68 53.9337C225.205 54.2936 224.792 54.8602 224.86 55.4651C224.931 56.2462 225.752 56.9557 225.448 57.6806C225.339 57.8908 225.186 58.079 225 58.2344C224.099 59.1158 223.428 60.1798 223.042 61.3432C225.205 61.9761 227.548 59.748 229.244 58.6938C230.329 58.0226 233.026 57.3437 233.912 58.6836Z" fill="#333333"/>
<path opacity="0.1" d="M254.887 116L253.878 116.766C252.989 115.387 249.344 112.631 249.344 112.631L249.502 112.488C249.839 112.409 250.03 112.368 250.03 112.368L254.887 116Z" fill="black"/>
<path d="M255.858 114.602C255.858 114.602 255.494 115.444 255.122 116.169C254.75 116.894 254.34 117.557 254.321 117.019C254.28 115.962 249.587 112.411 249.587 112.411L250.224 111.835L250.96 111.166L255.858 114.602Z" fill="#F4F7FF"/>
<path opacity="0.1" d="M256.019 109.012L256.552 117.435C255.294 115.61 251.843 110.934 249.625 111.084L254.999 105.313C255.223 105.081 255.429 104.835 255.617 104.576C255.82 106.983 256.019 109.012 256.019 109.012Z" fill="black"/>
<path opacity="0.1" d="M255.858 114.601C255.858 114.601 255.494 115.444 255.122 116.169C253.711 114.364 251.772 112.233 250.224 111.83L250.96 111.161L255.858 114.601Z" fill="black"/>
<path d="M259.902 84.0542L261.36 85.1109C261.36 85.1109 263.786 85.1492 264.029 87.038C264.272 88.9268 266.49 89.7946 266.49 89.7946C266.49 89.7946 268.148 91.3414 268.148 92.0586C268.148 92.7759 269.403 94.0598 269.403 94.1746C269.403 94.2895 270.617 96.5918 270.453 97.0053C270.289 97.4188 271.749 99.2336 271.303 99.9125C270.938 100.523 270.614 101.153 270.333 101.801C270.333 101.801 268.432 105.201 267.461 105.842C266.49 106.482 262.038 111.883 262.038 111.883C262.038 111.883 257.266 117.019 257.266 118.604C257.266 118.604 252.617 111.355 249.861 111.544L255.242 105.765C255.242 105.765 256.172 104.823 256.213 104.257C256.254 103.69 258.803 101.084 260.017 100.972C260.017 100.972 260.217 99.4224 259.692 99.3841C259.167 99.3459 258.721 98.1386 258.721 98.1386C258.721 98.1386 255.166 94.2129 255.119 91.7192C255.073 89.2254 259.902 84.0542 259.902 84.0542Z" fill="#333333"/>
<path opacity="0.1" d="M262.047 87.6406C262.047 87.6406 258.65 89.9836 259.378 90.7365C260.105 91.4894 262.047 87.6406 262.047 87.6406Z" fill="black"/>
<path opacity="0.1" d="M262.208 97.309C262.208 97.309 268.519 95.4203 269.168 97.309H262.208Z" fill="black"/>
<path opacity="0.1" d="M223.129 197.636C223.129 197.636 219.73 199.714 218.032 199.423C216.333 199.132 214.591 199.954 214.591 199.954C213.42 201.147 211.944 202.043 210.301 202.559C207.566 203.427 203.71 203.085 201.525 202.406C200.491 202.085 200.407 201.671 200.904 201.158C203.281 201.6 208.589 202.48 210.019 201.84C211.879 201.008 214.55 199.196 214.55 199.196C214.55 199.196 218.032 198.744 218.516 198.744C218.86 198.744 221.548 197.708 223.066 197.115L223.129 197.636Z" fill="black"/>
<path opacity="0.1" d="M243.713 201.883L243.678 202.092C243.678 202.092 242.857 203.754 238.38 204.359C233.904 204.964 233.89 202.96 233.89 202.96C233.89 202.96 233.907 202.746 233.934 202.422C235.356 202.925 238.457 203.486 243.713 201.883Z" fill="black"/>
<path opacity="0.1" d="M217.687 87.1888C217.687 87.1888 217.687 95.7978 216.897 96.6477C216.106 97.4976 217.687 87.1888 217.687 87.1888Z" fill="black"/>
<path opacity="0.1" d="M254.157 89.9633L255.33 93.0416C255.33 93.0416 255.798 90.0194 254.157 89.9633Z" fill="black"/>
<g opacity="0.1">
<path opacity="0.1" d="M225.552 56.9588C225.847 56.2491 225.071 55.5547 224.97 54.7939C224.867 55.0085 224.823 55.2436 224.841 55.4781C224.893 56.05 225.344 56.5835 225.465 57.1145C225.498 57.0651 225.528 57.013 225.552 56.9588Z" fill="black"/>
<path opacity="0.1" d="M238.979 65.089C238.69 63.8996 238.774 62.6387 238.479 61.4468C238.184 60.2548 237.273 59.0092 236.034 58.9888C235.487 58.9888 234.875 59.1726 234.489 58.7999C234.254 58.5753 234.216 58.218 234.032 57.9449C233.146 56.6049 230.45 57.2838 229.345 57.9704C227.704 58.9914 225.418 61.143 223.296 60.6581C223.195 60.8852 223.102 61.1175 223.022 61.3549C225.186 61.9879 227.529 59.7596 229.225 58.7055C230.319 58.0215 233.026 57.3425 233.912 58.6825C234.087 58.9556 234.134 59.3104 234.366 59.535C234.752 59.9102 235.378 59.7162 235.911 59.7265C237.153 59.7469 238.058 60.972 238.359 62.1844C238.659 63.3968 238.561 64.6806 238.87 65.8905C238.85 65.6192 238.887 65.3469 238.979 65.089Z" fill="black"/>
<path opacity="0.1" d="M245.061 63.676C244.843 64.2731 244.266 64.8242 243.642 64.6966C243.019 64.569 242.715 63.9133 242.25 63.4974C241.962 63.2451 241.596 63.0824 241.204 63.0317C240.813 62.981 240.414 63.0447 240.062 63.2142C239.725 63.4018 239.448 63.67 239.259 63.9912C239.07 64.3124 238.976 64.6748 238.988 65.041C239.151 64.5802 239.491 64.1915 239.942 63.949C240.293 63.7773 240.693 63.7125 241.085 63.7637C241.478 63.815 241.843 63.9797 242.13 64.2348C242.597 64.6481 242.915 65.3115 243.524 65.4314C244.134 65.5513 244.722 65.0053 244.944 64.4108C245.059 64.0578 245.133 63.6943 245.165 63.3264C245.139 63.4449 245.104 63.5617 245.061 63.676Z" fill="black"/>
<path opacity="0.1" d="M246.965 58.5295C246.511 59.65 245.685 60.6147 245.411 61.7939C245.357 62.0313 245.324 62.2738 245.294 62.5188C245.567 61.3447 246.388 60.3825 246.844 59.2645C247.046 58.7616 247.172 58.2351 247.219 57.7C247.157 57.982 247.072 58.2593 246.965 58.5295Z" fill="black"/>
</g>
<path d="M188.5 85.8722C188.554 85.8722 188.598 85.831 188.598 85.7801C188.598 85.7292 188.554 85.688 188.5 85.688C188.445 85.688 188.401 85.7292 188.401 85.7801C188.401 85.831 188.445 85.8722 188.5 85.8722Z" fill="#E6E8EC"/>
<path d="M136.609 54.7223L65.0944 98.0261L111.765 176.589C111.983 176.956 112.28 177.277 112.638 177.532C112.995 177.787 113.406 177.97 113.843 178.069L156.129 187.697C156.854 187.86 157.617 187.787 158.291 187.489C158.964 187.192 159.508 186.687 159.832 186.061L180.807 145.388L203.795 116.707L149.243 56.4707C147.725 54.7953 145.605 53.6936 143.28 53.3718C140.954 53.0499 138.583 53.5301 136.609 54.7223Z" fill="#DCDFED"/>
<path opacity="0.1" d="M204.522 117.047L204.32 117.302L190.854 134.105L190.611 134.408L181.535 145.733L163.595 180.525L163.092 181.498L160.559 186.406C160.236 187.034 159.691 187.539 159.016 187.837C158.341 188.134 157.577 188.207 156.851 188.042L114.565 178.409C114.127 178.31 113.717 178.127 113.359 177.873C113.001 177.618 112.704 177.296 112.486 176.929L108.42 170.096L107.69 168.866L78.3384 119.436L78.0868 119.015L65.819 98.366L67.3012 97.4676L78.538 90.6654L78.7978 90.5072L102.461 76.178L103.954 75.2744L137.331 55.062C139.305 53.8675 141.677 53.3858 144.004 53.7072C146.331 54.0286 148.452 55.131 149.971 56.8078L174.856 84.2972L175.95 85.5223L194.013 105.467L194.111 105.577L203.193 115.602L204.336 116.866L204.522 117.047Z" fill="black"/>
<path opacity="0.1" d="M193.411 105.237L191.207 119.53L190.543 123.844L190.163 133.032L190.133 133.75L188.155 181.76C188.136 182.205 188.013 182.642 187.793 183.037C187.574 183.433 187.264 183.78 186.886 184.052C186.507 184.323 186.069 184.514 185.603 184.611C185.137 184.708 184.654 184.708 184.187 184.611L162.873 180.17L162.643 180.121L107.98 168.735L106.976 168.526L76.9247 162.262L77.6138 119.096L77.6357 117.654L77.8435 104.588L78.0733 90.1675L101.736 75.8384L103.23 74.9348C125.178 77.0354 154.368 81.0759 174.143 83.9575L175.237 85.1827L193.286 105.127L193.411 105.237Z" fill="black"/>
<path d="M195.908 88.2889L193.313 105.135L190.934 120.561L190.269 124.865L189.889 134.053L187.882 182.781C187.863 183.226 187.739 183.662 187.52 184.058C187.3 184.454 186.99 184.8 186.612 185.072C186.233 185.344 185.796 185.535 185.329 185.632C184.863 185.729 184.38 185.729 183.914 185.632L162.37 181.142L107.706 169.756L76.6511 163.283L77.3621 118.675L77.5699 105.609L77.8133 90.3257L78.0622 74.6056C83.1979 74.3784 91.6481 74.8914 101.736 75.8384C124.325 77.9543 155.117 82.2347 175.25 85.1827C187.578 86.9872 195.908 88.2889 195.908 88.2889Z" fill="#EC003B"/>
<path opacity="0.1" d="M202.493 115.263L190.934 120.554L131.938 147.558L77.5701 105.62L66.5794 97.1281L65.0972 98.0265L77.365 118.675L76.654 163.283L107.709 169.756L111.767 176.589C111.985 176.956 112.282 177.278 112.64 177.533C112.998 177.787 113.408 177.97 113.846 178.069L156.132 187.697C156.856 187.86 157.618 187.786 158.292 187.489C158.965 187.191 159.509 186.687 159.832 186.061L162.365 181.153L183.908 185.642C184.375 185.739 184.858 185.739 185.324 185.642C185.79 185.546 186.228 185.355 186.607 185.083C186.985 184.811 187.295 184.465 187.514 184.069C187.734 183.673 187.857 183.237 187.876 182.791L189.884 134.064L203.593 116.963L203.631 116.531L202.493 115.263Z" fill="black"/>
<path d="M65.0943 98.0262L60.2184 175.959C60.1733 176.68 60.4046 177.393 60.8711 177.969C61.3376 178.546 62.0087 178.949 62.7644 179.106L192.257 205.944C192.711 206.037 193.181 206.038 193.636 205.947C194.09 205.857 194.519 205.676 194.893 205.418C195.266 205.16 195.577 204.831 195.803 204.452C196.029 204.073 196.165 203.653 196.203 203.221L203.792 116.707L131.938 149.6L65.0943 98.0262Z" fill="#DCDFED"/>
<path opacity="0.1" d="M61.1099 177.742L128.383 139.005C129.379 138.441 130.557 138.224 131.708 138.392C132.859 138.56 133.909 139.103 134.673 139.923L194.885 205.466C195.104 205.701 195.211 205.533 194.885 205.466L61.1099 177.742C60.727 177.663 60.7762 177.929 61.1099 177.742Z" fill="black"/>
<path d="M61.5911 177.679L128.17 140.141C129.222 139.547 130.466 139.32 131.68 139.498C132.895 139.677 134.003 140.249 134.81 141.116L194.478 205.163C194.577 205.269 194.637 205.402 194.65 205.543C194.664 205.683 194.629 205.824 194.552 205.945C194.475 206.066 194.359 206.161 194.22 206.218C194.082 206.274 193.928 206.288 193.78 206.258L61.8072 178.906C61.6667 178.878 61.5385 178.811 61.4394 178.714C61.3403 178.616 61.2749 178.493 61.2516 178.361C61.2283 178.229 61.2482 178.093 61.3088 177.971C61.3693 177.849 61.4677 177.747 61.5911 177.679Z" fill="#E3E5F1"/>
<path d="M32.5406 204.703C47.7949 204.703 60.161 203.561 60.161 202.151C60.161 200.741 47.7949 199.599 32.5406 199.599C17.2863 199.599 4.92029 200.741 4.92029 202.151C4.92029 203.561 17.2863 204.703 32.5406 204.703Z" fill="white" style="mix-blend-mode:multiply"/>
<path d="M51.1784 147.682C50.6662 147.643 50.1691 147.501 49.7213 147.266C49.2735 147.031 48.8857 146.707 48.5846 146.319C48.2835 145.93 48.0763 145.485 47.9772 145.014C47.878 144.544 47.8894 144.059 48.0105 143.593L50.4855 134.064H55.0211V144.374C55.0211 144.833 54.9193 145.286 54.7222 145.706C54.5252 146.126 54.237 146.503 53.876 146.814C53.515 147.125 53.0889 147.362 52.6246 147.511C52.1603 147.661 51.6679 147.719 51.1784 147.682Z" fill="#E0B8BE"/>
<path d="M47.5697 84.9789C43.0822 85.7617 38.5283 86.1665 33.9632 86.1884C29.629 86.1933 25.2996 85.9239 21.0045 85.382C21.0045 85.382 21.6524 62.6031 33.9632 63.0063C47.158 63.4384 47.5697 84.9789 47.5697 84.9789Z" fill="#333333"/>
<path d="M41.7386 193.63L47.1379 194.235L50.2697 154.927L40.7667 157.548L41.7386 193.63Z" fill="#E0B8BE"/>
<path d="M23.9203 191.514L18.6286 193.631L15.2811 154.625L24.7841 157.245L23.9203 191.514Z" fill="#E0B8BE"/>
<path d="M33.8748 82.5427C38.2144 82.5427 41.7324 79.2593 41.7324 75.209C41.7324 71.1588 38.2144 67.8754 33.8748 67.8754C29.5351 67.8754 26.0172 71.1588 26.0172 75.209C26.0172 79.2593 29.5351 82.5427 33.8748 82.5427Z" fill="#E0B8BE"/>
<path d="M41.0906 106.749H28.348V89.0946C31.5703 87.1198 30.4337 83.5973 28.348 79.7378L39.6868 79.4354C37.9876 84.1815 38.5797 87.7355 43.3584 89.1112L41.0906 106.749Z" fill="#E0B8BE"/>
<path d="M53.2931 160.672C46.9587 158.78 42.2517 161.004 38.6067 165.913L34.5031 150.996L28.4557 163.292C23.2283 157.941 16.7477 155.831 9.44971 155.834C10.3527 139.254 13.3159 126.284 21.1125 115.518C21.8055 114.561 22.0607 111.362 22.8403 110.479L18.1861 96.8598C18.3556 95.7154 18.8238 94.6274 19.5494 93.6914C20.275 92.7555 21.2358 92.0002 22.3474 91.492L29.3196 88.3047L35.151 97.3758L40.3345 87.4984L49.0718 90.1644C49.8009 90.3869 50.4381 90.815 50.8956 91.3897C51.353 91.9644 51.6082 92.6574 51.626 93.3731L44.654 118.34C43.3136 129.286 47.4157 144.313 53.2931 160.672Z" fill="#333333"/>
<path d="M55.669 135.475L48.9738 134.668L45.5181 111.487L46.382 89.3129L48.4812 89.6835C50.1523 89.9786 51.6656 90.7968 52.7712 92.003C53.8768 93.2092 54.5086 94.7313 54.5622 96.3179L55.669 135.475Z" fill="#333333"/>
<path d="M9.34894 147.848C9.84975 147.955 10.3696 147.96 10.8726 147.862C11.3756 147.764 11.8499 147.565 12.2627 147.28C12.6756 146.994 13.0172 146.628 13.264 146.208C13.5108 145.787 13.657 145.321 13.6925 144.843L14.4176 135.061L10.094 133.782L6.75647 143.611C6.6081 144.048 6.55833 144.509 6.61029 144.965C6.66226 145.421 6.81484 145.861 7.0584 146.259C7.30197 146.657 7.63125 147.004 8.02547 147.277C8.4197 147.551 8.87032 147.745 9.34894 147.848Z" fill="#E0B8BE"/>
<path d="M14.6332 136.08L9.44971 134.87L16.5195 97.1119C16.7327 95.9727 17.2723 94.9086 18.0809 94.0324C18.8895 93.1562 19.937 92.5005 21.1125 92.1348L22.8403 108.261L14.6332 136.08Z" fill="#333333"/>
<path d="M27.4341 73.4887H40.0457L40.5029 71.1114C40.6218 70.4936 40.5928 69.8589 40.4182 69.2528C40.2435 68.6466 39.9274 68.084 39.4926 67.6052C39.0577 67.1263 38.5149 66.7432 37.9028 66.483C37.2908 66.2229 36.6247 66.0923 35.9522 66.1005L31.227 66.1577C30.5339 66.1662 29.8519 66.3218 29.2329 66.613C28.6139 66.9042 28.074 67.3231 27.6544 67.8381C27.2348 68.353 26.9463 68.9505 26.811 69.585C26.6757 70.2195 26.6971 70.8745 26.8735 71.5002L27.4341 73.4887Z" fill="#333333"/>
<path d="M21.9639 203.195C21.0457 203.195 20.1531 202.912 19.4243 202.391C18.6955 201.87 18.1711 201.139 17.9324 200.311L17.5595 199.018C17.4712 198.712 17.4446 198.393 17.4811 198.078L18.1906 191.952C19.5437 190.386 21.511 190.009 24.3091 191.238L26.0382 198.447C26.1749 199.017 26.1726 199.608 26.0314 200.177C25.8903 200.746 25.6139 201.278 25.2227 201.734C24.8316 202.19 24.3356 202.558 23.7715 202.811C23.2075 203.063 22.5897 203.195 21.9639 203.195Z" fill="#EC003B"/>
<path d="M45.2896 203.195C44.3713 203.195 43.4787 202.912 42.7499 202.391C42.0211 201.87 41.4967 201.139 41.258 200.311L40.8851 199.018C40.7968 198.712 40.7702 198.393 40.8067 198.078L41.5163 191.952C42.8693 190.386 44.8366 190.009 47.6347 191.238L49.3638 198.447C49.5005 199.017 49.4982 199.608 49.3571 200.177C49.2159 200.746 48.9395 201.278 48.5484 201.734C48.1572 202.19 47.6612 202.558 47.0972 202.811C46.5331 203.063 45.9153 203.195 45.2896 203.195Z" fill="#EC003B"/>
<path d="M34.6111 107.959C35.6846 107.959 36.5549 107.147 36.5549 106.145C36.5549 105.143 35.6846 104.33 34.6111 104.33C33.5376 104.33 32.6673 105.143 32.6673 106.145C32.6673 107.147 33.5376 107.959 34.6111 107.959Z" fill="#E6E6E6"/>
<path d="M34.6111 115.62C35.6846 115.62 36.5549 114.807 36.5549 113.805C36.5549 112.803 35.6846 111.991 34.6111 111.991C33.5376 111.991 32.6673 112.803 32.6673 113.805C32.6673 114.807 33.5376 115.62 34.6111 115.62Z" fill="#0074C2"/>
<path d="M34.6111 123.279C35.6846 123.279 36.5549 122.467 36.5549 121.465C36.5549 120.463 35.6846 119.651 34.6111 119.651C33.5376 119.651 32.6673 120.463 32.6673 121.465C32.6673 122.467 33.5376 123.279 34.6111 123.279Z" fill="#E6E6E6"/>
<defs>
<linearGradient id="paint0_linear" x1="230.248" y1="204.81" x2="230.248" y2="46.6719" gradientUnits="userSpaceOnUse">
<stop stop-color="#808080" stop-opacity="0.25"/>
<stop offset="0.54" stop-color="#808080" stop-opacity="0.12"/>
<stop offset="1" stop-color="#808080" stop-opacity="0.1"/>
</linearGradient>
</defs>
</svg>
