<svg width="33" height="29" viewBox="0 0 33 29" fill="none" xmlns="http://www.w3.org/2000/svg">
<path d="M13.0647 21.3351C11.1263 21.3351 9.49805 22.9255 9.49805 24.9039C9.49805 26.8434 11.0875 28.4726 13.0647 28.4726C15.0031 28.4726 16.6313 26.8822 16.6313 24.9039C16.6313 22.9643 15.0031 21.3351 13.0647 21.3351ZM13.0647 26.1452C12.3669 26.1452 11.7853 25.5633 11.7853 24.8651C11.7853 24.1668 12.3669 23.585 13.0647 23.585C13.7625 23.585 14.344 24.1668 14.344 24.8651C14.344 25.5633 13.7625 26.1452 13.0647 26.1452Z" fill="white"/>
<path d="M24.9665 21.3351C23.0282 21.3351 21.3999 22.9255 21.3999 24.9039C21.3999 26.8434 22.9894 28.4726 24.9665 28.4726C26.9049 28.4726 28.5332 26.8822 28.5332 24.9039C28.5332 22.9643 26.9049 21.3351 24.9665 21.3351ZM24.9665 26.1452C24.2687 26.1452 23.6872 25.5633 23.6872 24.8651C23.6872 24.1668 24.2687 23.585 24.9665 23.585C25.6644 23.585 26.2459 24.1668 26.2459 24.8651C26.2459 25.5633 25.6644 26.1452 24.9665 26.1452Z" fill="white"/>
<path d="M31.8283 5.04284C31.5957 4.7713 31.2856 4.57734 30.9366 4.57734H7.98615L7.01696 0.853404C6.90066 0.34912 6.43544 0 5.89269 0H1.16303C0.542748 0 0 0.504284 0 1.16373C0 1.78439 0.50398 2.32746 1.16303 2.32746H5.00104L5.97023 6.01261C5.97023 6.0514 5.97023 6.0514 5.97023 6.0902L9.53686 19.7834C9.65316 20.2877 10.1184 20.6368 10.6611 20.6368H27.37C27.874 20.6368 28.3392 20.2877 28.4943 19.7834L32.0609 6.0902C32.1384 5.74108 32.0609 5.39196 31.8671 5.08163L31.8283 5.04284ZM26.4784 18.3094H11.5528L8.60643 6.90481H29.4635L26.5171 18.3094H26.4784Z" fill="white"/>
</svg>
