<svg width="62" height="62" viewBox="0 0 62 62" fill="none" xmlns="http://www.w3.org/2000/svg">
<g clip-path="url(#clip0)">
<path d="M59.5847 47.3662L47.3239 39.1896C45.768 38.1604 43.6823 38.499 42.532 39.9679L38.9606 44.5599C38.5016 45.1651 37.6672 45.3406 37.0033 44.9718L36.3239 44.5973C34.0718 43.3697 31.2696 41.8415 25.6238 36.1936C19.9779 30.5457 18.4466 27.7414 17.219 25.4935L16.8465 24.8141C16.4726 24.1502 16.6448 23.3123 17.2503 22.8497L21.8392 19.2793C23.3074 18.1289 23.6466 16.0438 22.6185 14.4874L14.4419 2.22662C13.3883 0.641709 11.2743 0.165927 9.64318 1.14647L4.51616 4.22628C2.90522 5.17335 1.72333 6.70716 1.21833 8.50631C-0.627898 15.2333 0.761003 26.843 17.8631 43.9471C31.4675 57.5504 41.5954 61.2087 48.5565 61.2087C50.1586 61.2156 51.7544 61.0071 53.301 60.589C55.1005 60.0845 56.6345 58.9025 57.581 57.2911L60.6639 52.1672C61.6459 50.5357 61.1703 48.4204 59.5847 47.3662ZM58.9245 51.1314L55.8487 56.2584C55.1691 57.4215 54.0658 58.2766 52.7699 58.6448C46.5597 60.3498 35.7102 58.9376 19.2914 42.5188C2.87269 26.1001 1.4606 15.2515 3.16558 9.04041C3.53419 7.74295 4.39041 6.6382 5.55491 5.95753L10.6819 2.88174C11.3897 2.45588 12.3072 2.6623 12.7644 3.35007L17.206 10.0185L20.934 15.6098C21.3804 16.2849 21.2337 17.1898 20.5968 17.6893L16.0069 21.2597C14.61 22.3278 14.2111 24.2604 15.0711 25.7942L15.4356 26.4564C16.7257 28.8225 18.3297 31.766 24.1855 37.6209C30.0414 43.4757 32.984 45.0798 35.349 46.3698L36.0122 46.7352C37.5459 47.5951 39.4786 47.1963 40.5467 45.7995L44.117 41.2095C44.6167 40.573 45.5212 40.4264 46.1966 40.8724L58.4563 49.0489C59.1445 49.5058 59.351 50.4238 58.9245 51.1314Z" fill="white"/>
<path d="M34.9227 10.7371C44.3959 10.7476 52.0727 18.4246 52.0834 27.8978C52.0834 28.4553 52.5353 28.9072 53.0928 28.9072C53.6503 28.9072 54.1022 28.4553 54.1022 27.8978C54.0905 17.31 45.5104 8.72985 34.9227 8.71826C34.3652 8.71826 33.9133 9.17015 33.9133 9.72767C33.9133 10.2852 34.3652 10.7371 34.9227 10.7371Z" fill="white"/>
<path d="M34.9227 16.7942C41.0523 16.8014 46.0195 21.7686 46.0267 27.8982C46.0267 28.4557 46.4787 28.9076 47.0361 28.9076C47.5936 28.9076 48.0455 28.4557 48.0455 27.8982C48.0371 20.6541 42.1667 14.7837 34.9227 14.7754C34.3652 14.7754 33.9133 15.2273 33.9133 15.7848C33.9133 16.3423 34.3652 16.7942 34.9227 16.7942Z" fill="white"/>
<path d="M34.9227 22.8509C37.7088 22.8542 39.9665 25.1119 39.97 27.8981C39.97 28.4557 40.422 28.9076 40.9794 28.9076C41.5368 28.9076 41.9888 28.4557 41.9888 27.8981C41.9843 23.9975 38.8233 20.8364 34.9227 20.832C34.3652 20.832 33.9133 21.2839 33.9133 21.8414C33.9133 22.399 34.3652 22.8509 34.9227 22.8509Z" fill="white"/>
</g>
<defs>
<clipPath id="clip0">
<rect width="60.576" height="60.576" fill="white" transform="translate(0.597946 0.635986)"/>
</clipPath>
</defs>
</svg>
