<svg width="36" height="37" viewBox="0 0 36 37" fill="none" xmlns="http://www.w3.org/2000/svg">
<path d="M19.0454 1.04634C17.8876 4.33757 18.921 6.31816 22.1072 6.89294C20.8745 9.61672 21.1506 12.1355 23.4388 14.1399C25.5166 15.9594 27.8798 16.0106 30.0527 14.8593C31.0056 15.5805 31.7629 16.4609 32.7103 16.7849C33.623 17.0961 34.7314 16.8307 35.8051 16.8179C36.6245 20.7956 35.0003 28.4855 28.2181 33.0471C21.853 37.3304 13.4466 36.9314 7.43085 32.0659C1.53944 27.2956 -0.584102 19.1536 2.21802 12.0549C4.92503 5.19607 12.0456 0.515492 19.0454 1.04634ZM32.917 20.1952C31.7244 19.5545 30.6508 18.9577 29.5552 18.4068C29.3375 18.2969 29.0266 18.3189 28.7687 18.3555C22.9888 19.1719 18.4619 15.1814 18.4857 9.29089C18.4875 9.04011 18.4619 8.67767 18.3028 8.5532C16.8908 7.44575 15.9982 6.01796 15.6287 4.29181C9.38063 4.73662 3.72517 11.8646 3.91539 18.9486C4.1239 26.6733 10.4945 32.961 18.2369 33.0855C25.769 33.2063 32.4927 27.2517 32.917 20.1952Z" fill="#EC003B"/>
<path d="M29.4016 0.994791C30.607 0.987469 31.602 1.9796 31.5983 3.18773C31.5947 4.36107 30.6454 5.33307 29.4766 5.36419C28.2713 5.3953 27.2543 4.42331 27.2342 3.21701C27.2141 2.00889 28.1944 1.00211 29.4016 0.994791Z" fill="#EC003B"/>
<path d="M27.1943 8.28929C27.9792 8.26915 28.6507 8.89902 28.6836 9.68637C28.7166 10.5012 28.0378 11.2043 27.22 11.2025C26.446 11.2006 25.7782 10.5341 25.7746 9.75778C25.7691 8.97593 26.4149 8.30943 27.1943 8.28929Z" fill="#EC003B"/>
<path d="M35.9756 11.2168C35.9701 11.9895 35.2986 12.6578 34.5265 12.6615C33.7435 12.6633 33.083 12.0206 33.0647 11.2351C33.0464 10.4166 33.7362 9.72634 34.554 9.74831C35.3352 9.76845 35.9811 10.4368 35.9756 11.2168Z" fill="#EC003B"/>
<path d="M14.1104 17.0098C14.1268 18.5896 12.8428 19.9203 11.2698 19.9533C9.63647 19.9881 8.29942 18.6939 8.28296 17.0666C8.26833 15.4777 9.53953 14.1598 11.1217 14.1213C12.744 14.0829 14.0939 15.3862 14.1104 17.0098Z" fill="#EC003B"/>
<path d="M15.5646 25.0878C15.5518 26.2905 14.5349 27.2716 13.3314 27.2442C12.1608 27.2167 11.2078 26.2484 11.2005 25.0787C11.1914 23.8724 12.1845 22.8748 13.3881 22.8766C14.5934 22.8784 15.5774 23.8779 15.5646 25.0878Z" fill="#EC003B"/>
<path d="M23.5537 28.7047C22.3502 28.6809 21.3772 27.6668 21.4009 26.4587C21.4229 25.3073 22.4252 24.328 23.5757 24.3298C24.792 24.3317 25.7742 25.3146 25.7724 26.5264C25.7706 27.7217 24.7445 28.7285 23.5537 28.7047Z" fill="#EC003B"/>
<path d="M15.5946 12.656C14.8097 12.6688 14.1437 12.0352 14.1181 11.2479C14.0925 10.466 14.7218 9.78306 15.5012 9.74827C16.3246 9.71165 17.018 10.3745 17.0216 11.2003C17.0253 11.9821 16.3776 12.6431 15.5946 12.656Z" fill="#EC003B"/>
<path d="M19.9385 18.5148C19.9275 19.2985 19.2706 19.9467 18.4876 19.9485C17.6679 19.9503 16.9946 19.2472 17.0312 18.4287C17.0678 17.6414 17.7411 17.017 18.526 17.0408C19.3127 17.0665 19.9494 17.7311 19.9385 18.5148Z" fill="#EC003B"/>
</svg>
