<svg width="157" height="24" viewBox="0 0 157 24" fill="none" xmlns="http://www.w3.org/2000/svg">
<path d="M12.3986 14.2709L3 2H9.71329L19 14.2709L9.71329 24H3L12.3986 14.2709Z" fill="#575757"/>
<path d="M21 24L28.4118 2H34.4759L42 24H36.2727L31.7136 10.5896L27.4011 24H21Z" fill="#575757"/>
<path d="M49 24V2H55V24H49Z" fill="#575757"/>
<path d="M62 2H67.8832L71.5749 17.9522L73.9927 14.2709H79.5365L83.4963 19.1355L87.4562 2H93L87.4562 24H81.9124L77.0536 17.9522L72.9745 24H66.7518L62 2Z" fill="#575757"/>
<path d="M105 2H99V24H105V2Z" fill="#575757"/>
<path d="M119.619 2H126L117.045 14.2709L126 24H119.619L111 14.2709L119.619 2Z" fill="#AE1C1C"/>
<path d="M136 24V2H141.789V10.5896L150.757 2H157L145.042 12.9562L157 24H150.757L141.789 15.9363V24H136Z" fill="#575757"/>
<path d="M10.4485 13.2709L1 1H7.74891L17.0849 13.2709M10.4485 13.2709H17.0849M10.4485 13.2709L1 23H7.74891L17.0849 13.2709M33.3948 1H27.3208L19.897 23H26.3084L30.6279 9.58964M33.3948 1L30.6279 9.58964M33.3948 1L40.9311 23H35.1945L30.6279 9.58964M71.6386 23H65.4521L60.7279 1H66.5769L70.2472 16.9522M71.6386 23L70.2472 16.9522M71.6386 23L75.694 16.9522M70.2472 16.9522L72.6509 13.2709H78.1626M70.2472 16.9522L78.1626 13.2709M75.694 16.9522L78.1626 13.2709M75.694 16.9522L80.5247 23H86.0363M75.694 16.9522L86.0363 23M78.1626 13.2709L82.0994 18.1355M82.0994 18.1355L86.0363 23M82.0994 18.1355L86.0363 1H91.5479L86.0363 23M116.181 13.2709L125.18 1H118.769L110.107 13.2709M116.181 13.2709H110.107M116.181 13.2709L125.18 23H118.769L110.107 13.2709M140.927 9.58964V1H135.191V23H140.927V14.9363M140.927 9.58964V14.9363M140.927 9.58964L149.813 1H156L144.15 11.9562M140.927 9.58964L144.15 11.9562M140.927 14.9363L149.813 23H156L144.15 11.9562M140.927 14.9363L144.15 11.9562M47.9049 1V23H53.6415V1H47.9049ZM97.9594 1H103.471V23H97.9594V1Z" stroke="black" stroke-width="0.3"/>
<path d="M10.4485 13.2709L1 1H7.74891L17.0849 13.2709M10.4485 13.2709H17.0849M10.4485 13.2709L1 23H7.74891L17.0849 13.2709M33.3948 1H27.3208L19.897 23H26.3084L30.6279 9.58964M33.3948 1L30.6279 9.58964M33.3948 1L40.9311 23H35.1945L30.6279 9.58964M71.6386 23H65.4521L60.7279 1H66.5769L70.2472 16.9522M71.6386 23L70.2472 16.9522M71.6386 23L75.694 16.9522M70.2472 16.9522L72.6509 13.2709H78.1626M70.2472 16.9522L78.1626 13.2709M75.694 16.9522L78.1626 13.2709M75.694 16.9522L80.5247 23H86.0363M75.694 16.9522L86.0363 23M78.1626 13.2709L82.0994 18.1355M82.0994 18.1355L86.0363 23M82.0994 18.1355L86.0363 1H91.5479L86.0363 23M116.181 13.2709L125.18 1H118.769L110.107 13.2709M116.181 13.2709H110.107M116.181 13.2709L125.18 23H118.769L110.107 13.2709M140.927 9.58964V1H135.191V23H140.927V14.9363M140.927 9.58964V14.9363M140.927 9.58964L149.813 1H156L144.15 11.9562M140.927 9.58964L144.15 11.9562M140.927 14.9363L149.813 23H156L144.15 11.9562M140.927 14.9363L144.15 11.9562M47.9049 1V23H53.6415V1H47.9049ZM97.9594 1H103.471V23H97.9594V1Z" stroke="black" stroke-width="0.3"/>
<path d="M12.3986 14.2709L3 2H9.71329L19 14.2709L9.71329 24H3L12.3986 14.2709Z" fill="#575757"/>
<path d="M21 24L28.4118 2H34.4759L42 24H36.2727L31.7136 10.5896L27.4011 24H21Z" fill="#575757"/>
<path d="M49 24V2H55V24H49Z" fill="#575757"/>
<path d="M62 2H67.8832L71.5749 17.9522L73.9927 14.2709H79.5365L83.4963 19.1355L87.4562 2H93L87.4562 24H81.9124L77.0536 17.9522L72.9745 24H66.7518L62 2Z" fill="#AE1C1C"/>
<path d="M105 2H99V24H105V2Z" fill="#AE1C1C"/>
<path d="M136 24V2H141.789V10.5896L150.757 2H157L145.042 12.9562L157 24H150.757L141.789 15.9363V24H136Z" fill="#AE1C1C"/>
<path d="M10.4485 13.2709L1 1H7.74891L17.0849 13.2709M10.4485 13.2709H17.0849M10.4485 13.2709L1 23H7.74891L17.0849 13.2709M33.3948 1H27.3208L19.897 23H26.3084L30.6279 9.58964M33.3948 1L30.6279 9.58964M33.3948 1L40.9311 23H35.1945L30.6279 9.58964M71.6386 23H65.4521L60.7279 1H66.5769L70.2472 16.9522M71.6386 23L70.2472 16.9522M71.6386 23L75.694 16.9522M70.2472 16.9522L72.6509 13.2709H78.1626M70.2472 16.9522L78.1626 13.2709M75.694 16.9522L78.1626 13.2709M75.694 16.9522L80.5247 23H86.0363M75.694 16.9522L86.0363 23M78.1626 13.2709L82.0994 18.1355M82.0994 18.1355L86.0363 23M82.0994 18.1355L86.0363 1H91.5479L86.0363 23M116.181 13.2709L125.18 1H118.769L110.107 13.2709M116.181 13.2709H110.107M116.181 13.2709L125.18 23H118.769L110.107 13.2709M140.927 9.58964V1H135.191V23H140.927V14.9363M140.927 9.58964V14.9363M140.927 9.58964L149.813 1H156L144.15 11.9562M140.927 9.58964L144.15 11.9562M140.927 14.9363L149.813 23H156L144.15 11.9562M140.927 14.9363L144.15 11.9562M47.9049 1V23H53.6415V1H47.9049ZM97.9594 1H103.471V23H97.9594V1Z" stroke="black" stroke-width="0.3"/>
</svg>
