<svg width="150" height="80" viewBox="0 0 150 80" fill="none" xmlns="http://www.w3.org/2000/svg">
<path d="M114.488 39.3368V38.1536H116.682V40.5201H115.585C115.005 40.5201 114.488 40.0139 114.488 39.3368ZM114.111 28.0033L111.956 18.92C112.575 18.5854 112.984 17.9136 112.984 17.1587V15.5746C112.984 11.884 110.13 8.83693 106.566 8.83693H96.4501V6.06935C96.4501 4.12576 94.9442 2.5 93.0377 2.5H38.9248C37.0183 2.5 35.5124 4.12576 35.5124 6.06935V33.0003C35.5124 34.0715 36.3427 34.9855 37.4217 34.9855C38.5004 34.9855 39.3309 34.0717 39.3309 33.0003V6.47042H92.6314V33.0007C92.6314 34.0718 93.4617 34.9859 94.5407 34.9859C95.6194 34.9859 96.4499 34.0721 96.4499 33.0007V31.817H112.558C112.564 31.8173 112.57 31.8174 112.577 31.8174C112.582 31.8174 112.586 31.8173 112.59 31.8172C114.161 31.8222 115.544 32.7736 116.228 34.1835H112.578C111.499 34.1835 110.669 35.0973 110.669 36.1687V39.337C110.669 42.1541 112.849 44.4905 115.584 44.4905H116.682V50.0251H113.852C112.491 46.3355 109.077 43.6884 105.062 43.6884C101.211 43.6884 97.9131 46.124 96.4496 49.579V39.3368C96.4496 38.2657 95.6193 37.3516 94.5403 37.3516C93.4616 37.3516 92.6311 38.2654 92.6311 39.3368V50.0247H64.2488C62.8879 46.3352 59.4743 43.688 55.4593 43.688C51.4444 43.688 48.0306 46.3352 46.6698 50.0247H39.3309V47.6584H44.9374C46.0161 47.6584 46.8466 46.7447 46.8466 45.6732C46.8466 44.6018 46.0163 43.688 44.9374 43.688H31.4092C30.3305 43.688 29.5 44.6018 29.5 45.6732C29.5 46.7446 30.3303 47.6584 31.4092 47.6584H35.5126V50.4258C35.5126 52.3694 37.0185 53.9952 38.925 53.9952H46.0422C46.2428 59.2497 50.3667 63.5 55.4593 63.5C60.5519 63.5 64.6759 59.2497 64.8765 53.9952H95.6453C95.8459 59.2497 99.9698 63.5 105.062 63.5C110.155 63.5 114.279 59.2497 114.48 53.9952H118.591C119.669 53.9952 120.5 53.0814 120.5 52.01V36.1684C120.5 32.1478 117.765 28.7584 114.111 28.0033ZM96.4501 12.8072H106.566C107.851 12.8072 108.955 13.8192 109.139 15.1735H96.4501V12.8072ZM96.4501 27.8468V19.1437H108.077L110.141 27.8468H96.4501ZM55.4593 59.5301C52.3928 59.5301 49.8528 56.8922 49.8528 53.5945C49.8528 50.2968 52.3928 47.6588 55.4593 47.6588C58.5259 47.6588 61.0658 50.2968 61.0658 53.5945C61.0658 56.8922 58.5259 59.5301 55.4593 59.5301ZM105.063 59.5301C101.996 59.5301 99.4563 56.8922 99.4563 53.5945C99.4563 50.2968 101.996 47.6588 105.063 47.6588C108.129 47.6588 110.669 50.2968 110.669 53.5945C110.669 56.8922 108.129 59.5301 105.063 59.5301Z" fill="#EC003B" stroke="#EC003B"/>
<path d="M55.4595 50.525C53.8535 50.525 52.5471 51.9019 52.5471 53.5944C52.5471 55.2869 53.8535 56.6637 55.4595 56.6637C57.0654 56.6637 58.3718 55.2869 58.3718 53.5944C58.3718 51.9019 57.0654 50.525 55.4595 50.525Z" fill="#EC003B"/>
<path d="M105.063 50.525C103.457 50.525 102.15 51.9019 102.15 53.5944C102.15 55.2869 103.457 56.6637 105.063 56.6637C106.669 56.6637 107.975 55.2869 107.975 53.5944C107.975 51.9019 106.669 50.525 105.063 50.525Z" fill="#EC003B"/>
<path d="M88.5283 43.6885H67.4844C66.4057 43.6885 65.5752 44.6022 65.5752 45.6737C65.5752 46.7451 66.4055 47.6589 67.4844 47.6589H88.5283C89.607 47.6589 90.4375 46.7451 90.4375 45.6737C90.4375 44.6023 89.6072 43.6885 88.5283 43.6885Z" fill="#EC003B" stroke="#EC003B"/>
<path d="M52.4532 37.3518H34.4156C33.3369 37.3518 32.5063 38.2656 32.5063 39.337C32.5063 40.4084 33.3367 41.3222 34.4156 41.3222H52.4532C53.5319 41.3222 54.3625 40.4085 54.3625 39.337C54.3625 38.2656 53.5319 37.3518 52.4532 37.3518Z" fill="#EC003B" stroke="#EC003B"/>
<path d="M79.3655 17.3483L79.3654 17.3483C78.618 16.5606 77.3945 16.5606 76.6471 17.3485L64.4781 30.1734L58.3215 23.685C57.5741 22.8972 56.3507 22.8971 55.6033 23.685C54.8699 24.458 54.8699 25.7006 55.6033 26.4736L63.1189 34.3944C63.4895 34.7852 63.9819 34.9853 64.478 34.9853C64.9741 34.9853 65.4668 34.7853 65.8373 34.3943L79.3652 20.137L79.3653 20.137C80.0986 19.3639 80.0987 18.1213 79.3655 17.3483Z" fill="#EC003B" stroke="#EC003B"/>
</svg>
