<svg width="196" height="51" viewBox="0 0 196 51" fill="none" xmlns="http://www.w3.org/2000/svg">
<g filter="url(#filter0_d)">
<path fill-rule="evenodd" clip-rule="evenodd" d="M12.6402 25.3547V42.2981H4V13.226C4 3.65681 7.56064 0 16.7279 0H36.167V8.83704H17.3688C13.8078 8.83704 12.6402 10.0561 12.6402 13.7738V16.4557H36.167V25.3547H12.6402Z" fill="#004B96"/>
<path fill-rule="evenodd" clip-rule="evenodd" d="M59.1992 42.8964H49.2415C43.2244 42.8964 39.6397 39.2134 39.6397 33.1073V20.2214C39.6397 14.115 43.2244 10.477 49.2415 10.477H59.1992C65.2167 10.477 68.8014 14.115 68.8014 20.2214V33.1073C68.8014 39.2134 65.2167 42.8964 59.1992 42.8964ZM61.4886 21.9078C61.4886 19.4405 60.2496 18.1838 57.817 18.1838H50.9643C48.53 18.1838 47.2909 19.4405 47.2909 21.9078V31.5537C47.2909 34.0236 48.53 35.2803 50.9643 35.2803H57.817C60.2496 35.2803 61.4886 34.0236 61.4886 31.5537V21.9078Z" fill="#004B96"/>
<path fill-rule="evenodd" clip-rule="evenodd" d="M94.1425 42.2981L92.618 34.924C92.2155 32.591 91.5923 31.1096 90.0678 31.1096H83.8955V23.8141H90.5165C92.5795 23.8141 92.8925 22.962 92.8925 21.5714V20.7954C92.8925 19.407 92.5795 18.5531 90.5165 18.5531H81.1824V42.2981H73.6128V11.1638H90.7861C97.1975 11.1638 100.292 14.0693 100.292 18.8238V21.1129C100.292 24.7026 98.9909 26.811 96.2115 27.6631C97.9137 28.337 99.2899 29.9961 99.8283 32.4195L101.816 42.2981H94.1425Z" fill="#004B96"/>
<path fill-rule="evenodd" clip-rule="evenodd" d="M115.032 42.2981C108.098 42.2981 105.402 39.4849 105.402 32.2446V0.623413H112.616V31.0801C112.616 33.8948 113.5 34.7702 116.195 34.7702H125.457V42.2981H115.032Z" fill="#004B96"/>
<path fill-rule="evenodd" clip-rule="evenodd" d="M147.238 43H138.436C132.265 43 128.545 39.2838 128.545 33.1214V10.9178H136.088V31.5921C136.088 34.0852 137.403 35.3529 139.899 35.3529H145.775C148.272 35.3529 149.586 34.0852 149.586 31.5921V10.9178H157.13V33.1214C157.13 39.2838 153.409 43 147.238 43Z" fill="#004B96"/>
<path fill-rule="evenodd" clip-rule="evenodd" d="M182.43 42.2981L175.862 31.9816C175.531 31.5305 175.25 31.2586 174.92 31.2586C174.591 31.2586 174.262 31.5305 173.932 31.9816L167.41 42.2981H157.794L169.744 25.8542L159.111 10.9443H168.493L173.932 19.9946C174.262 20.4479 174.591 20.7197 174.92 20.7197C175.25 20.7197 175.531 20.4479 175.862 19.9946L181.302 10.9443H190.681L180.048 25.8542L192 42.2981H182.43Z" fill="#004B96"/>
</g>
<defs>
<filter id="filter0_d" x="0" y="0" width="196" height="51" filterUnits="userSpaceOnUse" color-interpolation-filters="sRGB">
<feFlood flood-opacity="0" result="BackgroundImageFix"/>
<feColorMatrix in="SourceAlpha" type="matrix" values="0 0 0 0 0 0 0 0 0 0 0 0 0 0 0 0 0 0 127 0"/>
<feOffset dy="4"/>
<feGaussianBlur stdDeviation="2"/>
<feColorMatrix type="matrix" values="0 0 0 0 0 0 0 0 0 0 0 0 0 0 0 0 0 0 0.25 0"/>
<feBlend mode="normal" in2="BackgroundImageFix" result="effect1_dropShadow"/>
<feBlend mode="normal" in="SourceGraphic" in2="effect1_dropShadow" result="shape"/>
</filter>
</defs>
</svg>
