<svg width="150" height="80" viewBox="0 0 150 80" fill="none" xmlns="http://www.w3.org/2000/svg">
<path d="M36.5354 38.2943V46.8761C36.5354 50.1201 38.2273 53.3567 41.5651 56.4968C43.866 58.6615 46.1649 60.0086 46.2617 60.0646L47.6048 60.8464L48.9479 60.0646C49.0447 60.0086 51.3436 58.6615 53.6445 56.4968C56.9816 53.3567 58.6742 50.1201 58.6742 46.8761V38.2943L47.6041 33.3733L36.5354 38.2943ZM41.8068 41.6347L44.9695 40.2289V52.525C43.2954 50.8912 41.8068 48.858 41.8068 46.8761V41.6347ZM53.4028 46.8761C53.4028 48.8438 51.9142 50.8756 50.2402 52.5115V40.2289L53.4028 41.6347V46.8761Z" fill="#EC003B"/>
<path d="M114 2.25H39.3046V24.8521C30.3721 28.1595 24 36.6415 24 46.5604C24 59.3468 34.5888 69.75 47.6048 69.75C59.7296 69.75 69.7464 60.7223 71.0613 49.1494H114V2.25ZM44.576 7.42866H108.729V33.4414H67.0575C62.7975 27.3635 55.6674 23.3707 47.6048 23.3707C46.579 23.3707 45.5682 23.4355 44.576 23.561V7.42866ZM47.6048 64.5713C37.4953 64.5713 29.2714 56.4914 29.2714 46.5604C29.2714 36.6287 37.4953 28.5494 47.6048 28.5494C57.7136 28.5494 65.9382 36.6287 65.9382 46.5604C65.9382 56.4914 57.7136 64.5713 47.6048 64.5713ZM71.0613 43.9707C70.8505 42.1129 70.4159 40.3199 69.7835 38.62H108.729V43.9707H71.0613Z" fill="#EC003B"/>
<path d="M89.0478 25.501C90.6731 25.501 92.1679 24.9458 93.349 24.0196C94.5307 24.9458 96.0248 25.501 97.6501 25.501C101.461 25.501 104.561 22.4553 104.561 18.7115C104.561 14.9683 101.461 11.9226 97.6501 11.9226C96.0248 11.9226 94.5307 12.4778 93.349 13.404C92.1679 12.4778 90.6731 11.9226 89.0478 11.9226C85.2369 11.9226 82.1367 14.9683 82.1367 18.7115C82.1367 22.4553 85.2369 25.501 89.0478 25.501ZM97.6501 17.1013C98.5544 17.1013 99.2898 17.8237 99.2898 18.7115C99.2898 19.5999 98.5544 20.3223 97.6501 20.3223C96.7465 20.3223 96.0111 19.5999 96.0111 18.7115C96.0111 17.8237 96.7465 17.1013 97.6501 17.1013ZM89.0478 17.1013C89.9514 17.1013 90.6875 17.8237 90.6875 18.7115C90.6875 19.5999 89.9514 20.3223 89.0478 20.3223C88.1435 20.3223 87.4081 19.5999 87.4081 18.7115C87.4081 17.8237 88.1435 17.1013 89.0478 17.1013Z" fill="#EC003B"/>
</svg>
