<svg width="55" height="84" viewBox="0 0 55 84" fill="none" xmlns="http://www.w3.org/2000/svg">
<path fill-rule="evenodd" clip-rule="evenodd" d="M27.5 35C23.705 35 20.625 31.864 20.625 28C20.625 24.136 23.705 21 27.5 21C31.295 21 34.375 24.136 34.375 28C34.375 31.864 31.295 35 27.5 35ZM27.5 17.5C21.8041 17.5 17.1875 22.2005 17.1875 28C17.1875 33.7995 21.8041 38.5 27.5 38.5C33.1959 38.5 37.8125 33.7995 37.8125 28C37.8125 22.2005 33.1959 17.5 27.5 17.5ZM3.4375 26.607C3.4375 14.2975 14.6816 3.5 27.5 3.5C40.3184 3.5 51.5625 14.2975 51.5625 26.607C51.5625 38.6995 42.7522 53.0075 27.5 77.4515C12.0691 52.696 3.4375 38.6995 3.4375 26.607ZM27.5 0C13.0694 0 0 11.9105 0 26.607C0 41.3 11.9247 58.842 27.5 84C43.0753 58.842 55 41.3 55 26.607C55 11.9105 41.9341 0 27.5 0" fill="white"/>
</svg>
