<svg width="150" height="80" viewBox="0 0 150 80" fill="none" xmlns="http://www.w3.org/2000/svg">
<path d="M62.064 8.19995C67.7814 8.19995 72.2614 9.56528 75.504 12.296C78.7467 15.0266 80.368 18.7813 80.368 23.56C80.368 28.3386 78.7467 32.0933 75.504 34.824C72.2614 37.512 67.7814 38.856 62.064 38.856H50.032V53H45.296V8.19995H62.064ZM61.936 34.696C66.3734 34.696 69.7654 33.736 72.112 31.816C74.4587 29.8533 75.632 27.1013 75.632 23.56C75.632 19.9333 74.4587 17.16 72.112 15.24C69.7654 13.2773 66.3734 12.296 61.936 12.296H50.032V34.696H61.936Z" fill="#EC003B"/>
<path d="M90.6085 8.19995H95.3445V48.904H120.433V53H90.6085V8.19995Z" fill="#EC003B"/>
<path fill-rule="evenodd" clip-rule="evenodd" d="M76.1482 35.5889L76.1422 35.5939C72.6651 38.4762 67.9312 39.856 62.064 39.856H51.032V54H44.296V7.19995H62.064C67.9346 7.19995 72.6708 8.60275 76.1482 11.531C79.6468 14.4773 81.368 18.5284 81.368 23.56C81.368 28.5915 79.6468 32.6426 76.1482 35.5889ZM50.032 38.856H62.064C67.7814 38.856 72.2614 37.512 75.504 34.824C78.7467 32.0933 80.368 28.3386 80.368 23.56C80.368 18.7813 78.7467 15.0266 75.504 12.296C72.2614 9.56528 67.7814 8.19995 62.064 8.19995H45.296V53H50.032V38.856ZM71.4705 16.007C69.3695 14.2499 66.2419 13.296 61.936 13.296H51.032V33.696H61.936C66.2433 33.696 69.3729 32.7627 71.4744 31.0456C73.5542 29.3042 74.632 26.8551 74.632 23.56C74.632 20.1681 73.5472 17.7062 71.4788 16.0139L71.4705 16.007ZM72.112 31.816C69.7654 33.736 66.3734 34.696 61.936 34.696H50.032V12.296H61.936C66.3734 12.296 69.7654 13.2773 72.112 15.24C74.4587 17.16 75.632 19.9333 75.632 23.56C75.632 27.1013 74.4587 29.8533 72.112 31.816ZM89.6085 7.19995H96.3445V47.904H121.433V54H89.6085V7.19995ZM95.3445 48.904V8.19995H90.6085V53H120.433V48.904H95.3445Z" fill="#EC003B"/>
</svg>
