<svg width="150" height="80" viewBox="0 0 150 80" fill="none" xmlns="http://www.w3.org/2000/svg">
<path d="M91.2177 10.7573C89.7916 10.7573 88.6344 11.9145 88.6344 13.3406V14.008C84.2025 10.4627 78.7041 8.5 72.8698 8.5C58.8784 8.5 47.5 19.9224 47.5 33.9583C47.5 35.3845 48.6572 36.5417 50.0833 36.5417C51.5095 36.5417 52.6667 35.3845 52.6667 33.9583C52.6667 22.7679 61.7323 13.6667 72.8698 13.6667C77.2747 13.6667 81.4371 15.0718 84.8648 17.624H84.3802C82.9541 17.624 81.7969 18.7811 81.7969 20.2073C81.7969 21.6334 82.9541 22.7906 84.3802 22.7906H91.2177C92.6438 22.7906 93.801 21.6334 93.801 20.2073V13.3406C93.801 11.9145 92.6438 10.7573 91.2177 10.7573Z" fill="#EC003B" stroke="#EC003B"/>
<path d="M54.3343 45.9427C54.3463 45.9387 54.3582 45.9346 54.3702 45.9305C54.426 45.9113 54.4819 45.8921 54.5385 45.8792C54.5803 45.8693 54.6227 45.8639 54.6653 45.8584C54.681 45.8564 54.6967 45.8544 54.7125 45.8521M54.3343 45.9427L61.8406 49.9896C62.9906 49.9896 63.9239 49.0563 63.9239 47.9063C63.9239 46.7563 62.9906 45.823 61.8406 45.823H55.002C54.9925 45.823 54.9836 45.8243 54.9747 45.8256C54.9661 45.8269 54.9576 45.8282 54.9489 45.8282C54.8697 45.8302 54.7916 45.8407 54.7125 45.8521M54.3343 45.9427C54.3174 45.9487 54.3005 45.9543 54.2835 45.96C54.2377 45.9754 54.192 45.9907 54.1479 46.0105M54.3343 45.9427L54.1479 46.0105M54.7125 45.8521L54.6408 45.3573C54.7156 45.3465 54.8118 45.333 54.9155 45.329C54.9209 45.3283 54.9273 45.3275 54.9341 45.3267C54.9509 45.3249 54.9743 45.323 55.002 45.323H61.8406C63.2667 45.323 64.4239 46.4801 64.4239 47.9063C64.4239 49.3324 63.2667 50.4896 61.8406 50.4896H61.2845C64.683 52.9709 68.7892 54.3334 73.1302 54.3334C84.2676 54.3334 93.3333 45.2322 93.3333 34.0417C93.3333 32.6156 94.4905 31.4584 95.9166 31.4584C97.3428 31.4584 98.5 32.6156 98.5 34.0417C98.5 48.0776 87.1215 59.5 73.1302 59.5C67.393 59.5 61.9783 57.6039 57.5854 54.1708V54.774C57.5854 56.2001 56.4282 57.3573 55.002 57.3573C53.5759 57.3573 52.4187 56.2001 52.4187 54.774V47.9073C52.4187 47.8518 52.4246 47.8041 52.4279 47.779L52.4318 47.7494C52.4323 47.7452 52.4325 47.7432 52.4325 47.7426L52.4328 47.7384C52.4377 47.6681 52.4443 47.5736 52.4607 47.4753C52.4742 47.3912 52.4959 47.3098 52.51 47.2565C52.5119 47.2494 52.5137 47.2428 52.5153 47.2367L52.5157 47.2352C52.5351 47.1621 52.5586 47.0801 52.5905 46.9938L52.5924 46.9888L52.5925 46.9888C52.6243 46.9057 52.6601 46.8293 52.6952 46.7603C52.7265 46.6977 52.7662 46.6202 52.8155 46.5413L52.8199 46.5343L52.82 46.5343C52.8674 46.4611 52.9167 46.3954 52.959 46.3401L52.959 46.3401C52.9999 46.2866 53.0533 46.2175 53.1182 46.148C53.1869 46.0738 53.2596 46.0108 53.3108 45.9663L53.3149 45.9628C53.3154 45.9623 53.3165 45.9613 53.3182 45.9596L53.3383 45.9395C53.3554 45.9224 53.3893 45.8886 53.4334 45.8545C53.4553 45.8373 53.4752 45.8242 53.4907 45.8147C53.5006 45.8086 53.5097 45.8034 53.5163 45.7997C53.5907 45.7482 53.6652 45.7057 53.7202 45.6743C53.7247 45.6718 53.729 45.6693 53.7331 45.667L53.7349 45.6659C53.7407 45.6627 53.7482 45.6583 53.757 45.6532C53.799 45.6289 53.8714 45.5869 53.941 45.5553L53.9433 45.5542L53.9433 45.5542C54.0134 45.5228 54.0983 45.4945 54.1443 45.4792C54.1548 45.4757 54.1634 45.4728 54.1692 45.4708L54.174 45.4691L54.174 45.4691C54.1814 45.4667 54.1899 45.4637 54.1995 45.4604C54.2535 45.4417 54.3401 45.4117 54.4256 45.3921C54.497 45.3754 54.5825 45.3647 54.623 45.3596C54.6313 45.3585 54.6377 45.3577 54.6417 45.3571L54.7125 45.8521ZM54.1479 46.0105C54.1036 46.0306 54.0613 46.055 54.0189 46.0795C54.0063 46.0867 53.9938 46.094 53.9812 46.1011M54.1479 46.0105L53.9812 46.1011M53.9812 46.1011L53.972 46.1064C53.9095 46.142 53.8481 46.1771 53.7895 46.2188L53.9812 46.1011Z" fill="#EC003B" stroke="#EC003B"/>
</svg>
