<svg width="193" height="124" viewBox="0 0 193 124" fill="none" xmlns="http://www.w3.org/2000/svg">
<path d="M8.16237 60.2646C6.72399 58.6407 6.13825 56.9891 6.31501 54.5965C6.60615 50.6146 6.37393 46.4423 2.29101 43.9112C1.68099 43.5338 1.44877 42.8863 1.36905 42.1558C1.31013 41.6433 1.66713 40.9993 0.987793 40.6357C0.987793 39.6004 0.987793 38.5652 0.987793 37.5264C1.70872 36.8166 2.39152 36.0583 3.09511 35.3416C4.28394 34.1332 4.72412 32.0626 4.29781 30.7434C3.10204 27.0351 3.9824 23.1363 2.77278 19.4661C2.33953 18.1538 2.99807 17.0146 4.62015 16.748C9.37894 15.962 13.902 14.2792 18.543 13.0362C19.5239 12.7731 20.6018 12.8458 21.6381 12.8077C26.1092 12.638 29.9599 11.2392 32.5386 7.33003C33.0308 6.58559 33.8106 6.364 34.5732 6.15279C37.2558 5.41181 39.9697 4.79202 42.3231 3.1785C43.3386 2.48254 44.6245 2.52756 45.7891 2.33712C47.6919 2.0255 49.5081 1.37801 51.3589 1.0006C54.4506 0.370426 57.667 -0.322073 60.7586 1.29145C62.8105 2.36136 64.7445 3.57669 66.3458 5.26292C67.0875 6.04198 67.6421 6.91107 67.2782 8.04677C66.9142 9.179 66.1309 9.71222 64.9109 9.57372C64.7237 9.55295 64.4152 9.6499 64.3355 9.7884C64.1726 10.0689 64.3667 10.332 64.5989 10.5259C65.2991 11.1215 66.1656 11.2323 67.0251 11.2565C68.4635 11.2946 69.9054 11.253 71.3472 11.2496C72.0335 11.2461 72.744 11.1699 73.3124 11.6858C73.8843 12.2052 74.3141 11.852 74.5706 11.3811C75.4613 9.75031 76.969 9.64298 78.4629 9.94075C83.7901 11.0072 89.2143 11.395 94.5762 12.2156C97.8828 12.7211 101.352 12.2052 104.745 12.0806C107.39 11.9836 110.031 11.8105 112.669 11.6027C113.559 11.5335 114.405 11.3465 115.199 10.7233C116.707 9.53564 118.894 10.0758 119.888 11.7482C120.065 12.0459 120.176 12.4753 120.516 12.5168C122.623 12.7661 123.749 14.6082 125.462 15.505C126.734 16.1698 127.534 18.313 127.104 19.7154C126.865 20.4944 126.924 21.0865 127.267 21.824C128.532 24.5421 128.73 27.4644 128.702 30.411C128.692 31.6021 127.94 32.2184 126.869 32.2877C125.683 32.3638 124.865 31.7233 124.779 30.4837C124.657 28.704 124.519 26.9312 124.117 25.193C123.989 24.6425 123.919 23.9638 123.559 23.6003C122.346 22.3642 122.159 21.0173 122.852 19.5076C123.022 19.1371 123.101 18.8393 122.706 18.6489C121.361 17.998 120.613 16.2459 118.758 16.516C118.561 16.5437 118.221 16.4398 118.135 16.291C117.233 14.7086 115.875 15.2107 114.544 15.4357C109.012 16.3741 103.394 15.8997 97.8447 16.4468C94.9852 16.7307 92.3025 15.8581 89.5367 15.7543C86.7431 15.6469 84.0916 14.6255 81.298 14.7363C80.7539 14.7571 80.2999 14.5736 79.8181 14.3693C78.7575 13.9261 77.9984 14.3173 76.9171 14.8125C74.6607 15.8443 73.0421 18.8255 69.8672 17.5132C69.382 17.3124 68.6992 17.2016 68.5848 16.7515C68.155 15.0964 66.7444 15.3526 65.6283 15.1553C61.6494 14.4558 59.8436 12.8527 58.9737 8.96779C58.6721 7.62434 57.7918 6.47826 57.7155 5.06556C57.6982 4.72278 57.4868 4.59812 57.1402 4.61197C55.8162 4.6743 54.35 4.36268 53.1993 4.83358C50.5097 5.94157 47.6434 6.08007 44.8914 6.79681C42.8915 7.31964 41.3076 8.7912 39.2453 9.24133C38.5833 9.38675 37.8832 9.44215 37.2524 9.69145C36.1017 10.145 34.9509 10.4982 34.3236 11.8313C33.8384 12.8631 32.6703 13.3998 31.6791 13.9745C28.7919 15.6539 25.8493 16.9765 22.3244 16.8692C19.4615 16.7826 16.7026 17.8075 13.9887 18.7182C12.8449 19.1025 11.7323 19.6426 10.5054 19.5457C9.372 19.4591 8.95609 21.0034 7.62861 20.484C8.20397 22.0525 8.3738 23.3406 7.70833 24.8468C7.04633 26.346 8.12078 27.9284 8.37033 29.483C8.93876 33.0182 8.34261 36.1864 5.75005 38.8075C4.93901 39.6281 5.22322 40.4003 5.89562 41.0304C8.85211 43.7935 10.1865 47.2595 10.3009 51.2102C10.3494 52.8479 11.0426 54.4788 10.3875 56.1477C10.3044 56.3554 10.6371 56.7502 10.8139 57.0306C11.3753 57.9239 11.4966 58.8276 10.9698 59.7764C10.0513 60.0534 9.00807 59.5825 8.16237 60.2646Z" fill="white"/>
<path d="M8.16248 60.2644C9.00817 59.5823 10.0514 60.0532 10.9699 59.7901C12.0686 59.7208 12.4568 60.2402 12.4499 61.3205C12.443 62.4042 12.5469 63.5088 12.7549 64.5752C12.9767 65.7005 13.3961 66.767 14.4324 67.4664C16.2244 68.6748 16.5398 69.7239 16.0545 71.8741C15.5693 74.0209 14.065 75.7452 13.6976 77.9508C13.4481 79.4535 13.5348 80.288 15.3994 80.4611C17.6905 80.6723 19.8844 81.4272 21.8427 82.7325C23.3019 83.702 24.9829 84.1348 26.6639 84.5157C28.5979 84.9554 29.6273 86.2816 29.5372 88.269C29.506 88.9235 29.5094 89.5121 30.3378 89.7406C32.1921 90.2565 33.2874 91.638 34.2093 93.2135C34.6148 93.906 35.0862 94.5604 35.5195 95.2356C36.0324 96.0285 36.7326 95.9211 37.5055 95.7134C38.3928 95.4745 38.4759 94.8443 38.3928 94.1068C38.3546 93.764 38.313 93.4178 38.2229 93.0888C37.9041 91.9427 38.5383 91.0944 39.339 90.5958C40.1396 90.1007 41.0997 90.35 41.883 91.0183C42.5381 91.5757 43.2313 92.0916 43.9591 92.5521C44.8845 93.1338 45.8134 93.3485 46.8151 92.5521C47.6469 91.8873 48.5897 91.8319 49.5012 92.5314C50.3955 93.2204 50.593 94.1033 50.2915 95.1421C50.1632 95.5818 50.0315 96.0216 49.8964 96.4578C49.6988 97.0949 49.775 97.1711 50.5653 97.4343C52.7003 98.151 54.7834 98.8227 57.064 98.8262C57.5388 98.8262 57.9028 99.3698 58.2806 99.7299C59.1297 100.54 59.8368 101.409 61.3895 100.852C62.3669 100.502 63.4969 101.174 63.9024 102.431C64.9734 105.737 67.5243 108.113 69.3336 110.955C69.7495 111.61 70.1654 111.544 70.7477 111.156C71.7008 110.519 72.6713 109.882 73.7007 109.387C76.6711 107.957 79.021 108.971 80.0989 112.088C80.1544 112.25 80.1544 112.43 80.2063 112.593C81.2392 115.907 82.3379 116.381 85.5682 114.896C87.5612 113.981 89.3808 112.77 91.19 111.551C92.6354 110.578 94.0079 110.529 95.5399 111.385C97.1411 112.281 98.7805 113.029 99.8897 114.643C100.555 115.612 101.806 115.661 102.905 115.547C104.791 115.349 106.669 115.083 108.537 114.757C113.071 113.975 117.275 114.307 120.602 117.995C120.904 118.33 121.32 118.569 121.698 118.826C121.878 118.947 122.1 119.006 122.412 119.141C122.46 117.776 121.812 116.88 120.914 116.132C120.1 115.453 119.635 114.619 119.784 113.573C120.114 111.243 120.505 108.923 121.954 106.946C124.193 103.888 126.255 100.72 127.78 97.2334C131.298 97.0499 131.298 97.0499 131.343 94.2938C131.704 93.4836 131.888 92.5798 132.882 92.1817C133.628 91.8839 133.558 91.368 133.187 90.672C131.191 86.9187 132.276 83.0995 133.052 79.2977C133.156 78.7853 133.478 78.8649 133.825 79.0346C133.825 84.8377 133.825 90.6443 133.825 96.4474C132.428 97.223 131.486 98.2549 130.934 99.8684C129.929 102.818 128.12 105.374 126.297 107.888C125.86 108.493 125.337 109.068 125.039 109.736C124.307 111.388 123.417 112.977 125.119 114.747C126.231 115.903 126.64 117.572 126.706 119.217C126.848 122.659 124.054 124.528 120.914 123.105C119.861 122.627 118.772 122.094 118.051 121.215C115.604 118.227 112.426 118.258 109.064 118.808C106.797 119.179 104.548 119.76 102.229 119.684C99.8862 119.608 97.8759 118.791 96.3474 116.904C94.8363 115.041 93.6959 114.903 91.6961 116.146C89.7933 117.326 87.9043 118.542 85.7589 119.262C81.3432 120.74 78.2307 119.217 76.6572 114.812C75.8981 112.68 75.8947 112.68 73.9503 113.943C73.7111 114.099 73.4927 114.297 73.2536 114.452C69.8188 116.693 68.0893 116.378 65.7567 113.071C64.1346 110.772 62.4917 108.483 60.9147 106.149C60.5612 105.627 60.218 105.287 59.5838 105.218C58.7623 105.131 58.0137 104.744 57.4002 104.252C56.0519 103.175 54.7453 102.337 52.9083 103.151C52.0418 103.535 51.7992 102.614 51.3833 102.102C51.0055 101.634 50.9743 100.8 49.8721 101.735C48.1876 103.161 45.4668 101.319 45.2901 98.8262C45.2415 98.1267 45.7718 97.2265 44.4028 97.0672C43.2971 96.9426 42.4549 96.1462 41.4497 97.7493C39.5885 100.717 34.6911 100.713 32.4798 98.0021C31.9356 97.3373 31.4539 96.6102 31.0345 95.8623C30.3725 94.6746 29.551 93.8056 28.1889 93.3104C26.6292 92.7426 25.6934 91.3922 25.5894 89.7371C25.5201 88.6291 25.0418 88.314 24.0852 88.0821C22.4666 87.6873 20.9242 87.0433 19.5101 86.1258C17.9296 85.0974 16.162 84.6577 14.3077 84.4499C11.0774 84.0898 9.67018 82.5074 9.55234 79.2492C9.46569 76.8671 10.1797 74.7238 11.3616 72.7017C11.9577 71.6802 12.0964 70.9081 11.0427 69.9109C9.46222 68.4186 8.70663 66.4034 8.5472 64.2013C8.44669 62.889 8.29072 61.5767 8.16248 60.2644Z" fill="#FD0506"/>
<path d="M50.3572 68.166C49.2758 64.5581 51.1544 61.9508 52.9948 59.2639C55.5804 55.4898 58.0274 51.6222 60.7516 47.4638C57.7501 47.4638 55.0778 47.4014 52.4125 47.4915C51.1925 47.533 50.6968 47.3079 50.7246 45.9299C50.787 42.412 50.7142 42.412 54.2321 42.4085C58.3255 42.4085 62.4153 42.4431 66.5086 42.3774C67.642 42.36 67.9401 42.7098 68.006 43.8281C68.1446 46.1584 67.6039 48.132 66.2175 50.0814C63.3927 54.0598 60.8279 58.2183 58.1071 62.2728C57.4763 63.2112 57.5144 63.5193 58.7241 63.502C61.5488 63.4605 64.3736 63.5228 67.1949 63.4743C68.1376 63.457 68.4843 63.7063 68.5224 64.7139C68.6645 68.533 68.7026 68.5296 64.949 68.533C58.1834 68.533 51.4212 68.488 44.6556 68.5746C43.3143 68.5919 42.5899 68.1383 41.9106 67.058C40.3855 64.6273 38.6803 62.3075 37.1587 59.8733C36.5868 58.9592 35.8624 58.7653 34.989 58.9835C34.0879 59.212 34.5315 60.043 34.5176 60.5935C34.4656 62.7783 34.4518 64.9666 34.5107 67.1515C34.5384 68.1591 34.2716 68.5469 33.1728 68.5746C28.6497 68.6819 28.6497 68.7235 28.6497 64.1911C28.6497 57.46 28.6844 50.7254 28.6185 43.9943C28.6047 42.7098 28.9166 42.3185 30.2337 42.367C33.2283 42.4743 36.2264 42.3497 39.2244 42.4258C44.6452 42.5678 47.6052 46.3938 46.5169 51.7053C46.0802 53.8382 45.0126 55.5487 43.2484 56.7952C42.635 57.228 42.2572 57.5673 42.881 58.2563C43.0717 58.4675 43.1999 58.7342 43.3663 58.9696C45.536 62.0478 47.7057 65.1259 49.8754 68.2006C50.0418 68.1868 50.1977 68.1764 50.3572 68.166ZM34.5003 50.6735C34.5003 54.5826 34.5003 54.5826 37.7687 54.1083C39.7201 53.8244 40.8916 52.2385 40.694 50.1472C40.4791 47.8723 39.1655 47.0863 35.7897 47.211C33.308 47.301 34.9959 49.2054 34.5107 50.1645C34.4414 50.2995 34.5038 50.5004 34.5003 50.6735Z" fill="#FD0506"/>
<path d="M162.638 56.2725C162.638 52.1903 162.679 48.1114 162.613 44.0292C162.593 42.7723 162.915 42.3395 164.249 42.3602C168.031 42.426 168.034 42.3603 168.034 46.1586C168.034 53.0074 168 59.8562 168.058 66.7016C168.069 68.0519 167.774 68.4467 166.305 68.6129C163.331 68.9487 161.802 67.9169 160.669 65.1019C158.96 60.8603 156.707 56.8404 154.666 52.7339C154.43 52.263 154.389 51.612 153.512 51.3489C153.512 51.9202 153.512 52.4015 153.512 52.8862C153.508 57.6056 153.477 62.325 153.515 67.0444C153.522 68.1073 153.3 68.5609 152.094 68.5679C148.237 68.5886 148.237 68.644 148.24 64.8422C148.24 57.938 148.268 51.0303 148.216 44.1261C148.205 42.8415 148.507 42.5161 149.886 42.3187C154.018 41.7197 156.43 43.1428 157.81 47.187C158.901 50.3863 160.756 53.3294 162.27 56.3833C162.392 56.3487 162.513 56.3106 162.638 56.2725Z" fill="#FD0506"/>
<path d="M153.106 79.3151C157.841 75.0874 161.376 76.5625 163.019 79.8726C163.955 79.1212 164.842 78.2902 165.84 77.6254C168.89 75.5999 172.464 76.8845 173.563 80.3573C173.913 81.4653 173.968 82.6149 173.972 83.7679C173.979 87.7359 173.951 91.7074 174.003 95.6754C174.013 96.6137 173.809 96.9357 172.793 96.9496C168.533 97.0085 168.547 97.0465 168.53 92.8292C168.52 90.0108 168.481 87.1958 168.44 84.3773C168.423 83.2935 168.18 82.3136 167.002 81.8912C165.809 81.4619 164.905 82.1059 163.969 82.6876C163.387 83.0512 163.588 83.5982 163.584 84.083C163.567 87.8779 163.542 91.6762 163.591 95.4711C163.605 96.5099 163.449 96.96 162.222 96.9531C158.021 96.9288 158.021 96.9877 158.021 92.7981C158.021 90.0385 158.052 87.2754 158.011 84.5158C157.973 81.9536 156.302 81.081 154.066 82.3171C153.259 82.7638 153.165 83.3489 153.172 84.1418C153.2 87.9367 153.138 91.7351 153.214 95.53C153.238 96.6864 152.874 96.9461 151.765 96.9427C147.693 96.9288 147.693 96.9704 147.693 92.8292C147.696 88.1687 147.734 83.5082 147.668 78.8512C147.651 77.6289 147.866 77.0022 149.242 77.2134C149.918 77.3173 150.628 77.2896 151.311 77.2203C152.607 77.0818 153.602 77.2238 153.106 79.3151Z" fill="#151212"/>
<path d="M181.26 42.4048C184.356 42.4118 184.383 42.4048 185.264 45.3514C187.433 52.595 189.551 59.8558 191.759 67.0889C192.133 68.3112 191.856 68.6194 190.653 68.5397C189.225 68.4428 187.53 68.9171 186.421 68.3008C185.26 67.6568 185.42 65.7524 185.052 64.3951C184.789 63.4187 184.342 63.0378 183.375 63.1556C183.035 63.1971 182.685 63.1556 182.338 63.1625C180.789 63.1971 178.976 62.7504 177.767 63.4083C176.588 64.0523 176.824 66.0779 176.353 67.4698C176.204 67.9096 176.138 68.4705 175.587 68.4878C173.978 68.5432 172.349 68.6505 170.759 68.467C169.854 68.3631 170.485 67.5114 170.613 67.0716C172.211 61.6355 173.854 56.2133 175.483 50.7875C176.124 48.6512 176.883 46.5425 177.361 44.3681C177.711 42.7719 178.425 42.0898 180.051 42.391C180.442 42.4637 180.858 42.4014 181.26 42.4048ZM181.077 50.0466C180.307 52.8304 179.67 55.1433 179.032 57.4563C178.945 57.7714 178.713 58.27 179.181 58.3046C180.432 58.4016 181.694 58.3739 182.948 58.3392C183.319 58.3288 183.316 57.941 183.239 57.664C182.564 55.2645 181.877 52.8685 181.077 50.0466Z" fill="#FD0506"/>
<path d="M110.485 55.3061C110.485 51.4558 110.52 47.6056 110.461 43.7553C110.447 42.7131 110.714 42.3737 111.802 42.3876C116.121 42.4464 120.439 42.4326 124.755 42.3806C125.78 42.3703 126.151 42.6473 126.176 43.7276C126.252 47.467 126.293 47.467 122.509 47.4636C120.783 47.4636 119.053 47.4844 117.327 47.4428C116.53 47.4255 116.249 47.6817 116.204 48.5196C116.013 51.9648 115.982 51.9648 119.452 51.9821C121.063 51.9925 122.678 52.0306 124.287 51.9752C125.209 51.944 125.427 52.2972 125.455 53.1767C125.569 56.9093 125.6 56.9093 121.826 56.9058C121.538 56.9058 121.247 56.8816 120.963 56.9127C119.438 57.0755 117.251 56.2133 116.53 57.2936C115.594 58.6924 116.294 60.8461 116.239 62.6743C116.211 63.5538 116.866 63.4811 117.438 63.4845C119.913 63.488 122.391 63.5192 124.865 63.4603C125.836 63.4361 126.134 63.7373 126.162 64.7206C126.269 68.5224 126.307 68.5224 122.557 68.5224C119.16 68.5224 115.76 68.4463 112.367 68.5501C110.901 68.5952 110.357 68.2731 110.412 66.6769C110.541 62.889 110.454 59.0906 110.454 55.2992C110.468 55.3061 110.475 55.3061 110.485 55.3061Z" fill="#FD0506"/>
<path d="M71.5413 55.3998C71.5413 51.5496 71.5794 47.6958 71.5136 43.849C71.4928 42.7271 71.7978 42.3705 72.9485 42.3878C77.2082 42.4536 81.4679 42.4571 85.7276 42.3913C86.8956 42.374 87.159 42.7479 87.1486 43.8628C87.1209 47.4638 87.1694 47.4638 83.5613 47.4638C81.8907 47.4638 80.2201 47.5227 78.553 47.443C77.5409 47.3946 77.3226 47.772 77.3052 48.7172C77.2429 52.0066 77.2047 52.0031 80.5009 52.0066C82.1126 52.0066 83.7242 52.0274 85.3359 51.9997C86.0326 51.9858 86.4554 52.1693 86.3653 52.9553C86.3515 53.0696 86.3549 53.1838 86.3549 53.3016C86.445 56.9199 86.445 56.9199 82.8196 56.9233C81.3812 56.9233 79.9394 56.958 78.501 56.9095C77.6068 56.8783 77.2082 57.2003 77.3191 58.1041C77.333 58.2183 77.3191 58.3326 77.3295 58.4468C77.4647 60.0881 76.6016 62.2764 77.6796 63.2181C78.605 64.0284 80.74 63.4709 82.3413 63.4951C83.5509 63.5125 84.764 63.5505 85.9667 63.4778C86.8921 63.4224 87.107 63.7756 87.1417 64.6551C87.2838 68.54 87.315 68.54 83.499 68.5365C79.9879 68.5331 76.4734 68.4915 72.9624 68.5538C71.8602 68.5712 71.4789 68.3011 71.5032 67.1308C71.5933 63.2147 71.5448 59.3055 71.5413 55.3998Z" fill="#FD0506"/>
<path d="M107.643 83.9725C107.643 80.1742 107.685 76.3758 107.619 72.5774C107.598 71.4175 107.841 70.9916 109.116 71.0193C113.32 71.1094 117.531 71.1024 121.739 71.0228C122.928 70.9986 123.157 71.3863 123.15 72.477C123.129 76.0884 123.174 76.0884 119.583 76.085C117.854 76.085 116.124 76.1092 114.395 76.0711C113.677 76.0538 113.289 76.2408 113.403 77.0233C113.421 77.1375 113.407 77.2518 113.403 77.3695C113.32 81.0017 113.32 81.0017 116.949 81.0017C118.446 81.0017 119.947 81.0398 121.444 80.9844C122.214 80.9567 122.38 81.2267 122.418 81.9643C122.623 85.8942 122.651 85.8942 118.686 85.8907C117.358 85.8907 116.027 85.9669 114.71 85.8665C113.591 85.7834 113.362 86.2231 113.383 87.2446C113.445 90.1219 113.372 92.9992 113.424 95.8766C113.442 96.801 113.254 97.1577 112.215 97.1784C107.64 97.2685 107.643 97.3066 107.643 92.7742C107.643 89.8414 107.643 86.9087 107.643 83.9725Z" fill="#151212"/>
<path d="M187.86 94.7926C186.193 96.0668 185.042 97.1159 183.42 97.2994C178.931 97.8049 175.982 94.5156 176.769 89.862C177.257 86.9673 179.191 85.1495 182.522 84.5436C183.649 84.3393 184.803 84.277 185.943 84.1316C186.532 84.0554 187.416 84.322 187.558 83.5499C187.704 82.75 187.26 81.9779 186.453 81.5866C184.934 80.8491 183.333 80.8318 181.746 81.2577C180.598 81.5624 179.493 82.0194 178.099 82.5007C178.099 80.9911 178.12 79.5992 178.089 78.2038C178.075 77.5147 178.637 77.5044 179.018 77.4109C182.231 76.618 185.472 76.2821 188.712 77.2274C191.433 78.0203 192.927 79.942 192.958 82.7743C193.007 87.0816 192.948 91.3924 193 95.6997C193.01 96.6796 192.719 97.0363 191.742 96.9359C191.059 96.8631 190.362 96.9289 189.672 96.922C188.504 96.9012 186.91 97.4275 187.86 94.7926ZM187.659 89.9451C187.659 89.4292 187.666 88.9167 187.655 88.4008C187.648 87.9611 187.579 87.6044 186.972 87.7395C185.863 87.9819 184.688 87.8953 183.628 88.4008C182.234 89.0656 182.016 90.274 182.3 91.5863C182.56 92.7878 183.51 93.1306 184.654 93.1202C186.747 93.1029 187.659 92.1542 187.659 89.9451Z" fill="#151212"/>
<path d="M101.276 57.9135C101.276 60.9605 101.235 64.011 101.3 67.058C101.325 68.1348 101.089 68.5607 99.9001 68.5745C95.4498 68.623 95.4498 68.668 95.4498 64.2499C95.4498 59.1323 95.4255 54.0113 95.481 48.8937C95.4948 47.7927 95.2314 47.3599 94.0669 47.4464C92.6909 47.5468 91.301 47.4187 89.9215 47.488C88.9303 47.5399 88.5386 47.1417 88.601 46.1999C88.6045 46.1411 88.6045 46.0857 88.601 46.0268C88.4416 42.405 88.4416 42.405 92.0496 42.4016C96.8327 42.4016 101.612 42.4431 106.395 42.3773C107.674 42.36 108.225 42.5885 108.187 44.0497C108.101 47.4568 108.184 47.4603 104.714 47.4603C101.297 47.4603 101.297 47.4603 101.297 50.8362C101.297 53.1942 101.297 55.5521 101.297 57.9101C101.29 57.9135 101.283 57.9135 101.276 57.9135Z" fill="#FD0506"/>
<path d="M130.03 55.4831C130.03 51.5705 130.057 47.6579 130.005 43.7487C129.992 42.7377 130.207 42.3741 131.323 42.3637C135.86 42.3187 135.86 42.2737 135.86 46.7438C135.86 51.7471 135.918 56.7538 135.811 61.7571C135.78 63.2495 136.244 63.5888 137.644 63.5126C139.828 63.3914 142.022 63.5161 144.213 63.4676C145.159 63.4468 145.509 63.7308 145.543 64.7314C145.675 68.5505 145.713 68.5471 141.942 68.5436C138.487 68.5402 135.028 68.4917 131.572 68.5644C130.387 68.5886 129.981 68.2943 130.009 67.0513C130.082 63.1906 130.03 59.3369 130.03 55.4831Z" fill="#FD0506"/>
<path d="M133.822 96.4478C133.822 90.6447 133.822 84.8381 133.822 79.035C133.711 77.605 134.262 76.9159 135.783 77.2206C136.172 77.2968 136.588 77.231 136.99 77.231C139.343 77.231 139.343 77.231 139.409 79.5059C139.929 79.8106 140.123 79.3085 140.383 79.0731C141.204 78.3356 142.088 77.7158 143.145 77.3834C145.097 76.767 145.592 77.1168 145.599 79.08C145.599 79.1942 145.603 79.3085 145.599 79.4262C145.585 80.5169 145.932 81.8223 145.454 82.6429C144.948 83.512 143.624 82.494 142.657 82.7606C142.05 82.9303 141.419 83.0134 140.806 83.1588C139.714 83.415 139.291 84.0002 139.333 85.219C139.444 88.5499 139.277 91.8912 139.412 95.2221C139.471 96.7352 138.962 97.1646 137.593 96.9187C136.348 96.6971 134.983 97.4 133.822 96.4478Z" fill="#151212"/>
<path d="M131.34 94.294C131.298 97.0501 131.298 97.0501 127.777 97.2336C126.096 97.4448 125.763 96.6692 125.794 95.08C125.909 89.6819 125.857 84.277 125.808 78.8755C125.798 77.8714 125.971 77.5078 127.101 77.5078C131.278 77.5078 131.271 77.4559 131.281 81.5382C131.292 85.7901 131.319 90.042 131.34 94.294Z" fill="#151212"/>
<path d="M128.63 69.9526C131.388 69.9526 131.278 69.9596 131.43 72.688C131.52 74.3362 131.076 75.0217 129.399 74.7066C129.122 74.6547 128.827 74.6997 128.539 74.6997C125.618 74.6997 125.618 74.6997 125.625 71.8189C125.628 69.9526 125.628 69.9526 128.63 69.9526Z" fill="#151212"/>
</svg>
