<svg width="40" height="39" viewBox="0 0 40 39" fill="none" xmlns="http://www.w3.org/2000/svg">
<path d="M4.13986 8.96709C4.06952 9.08526 4.01991 9.16893 3.96882 9.25261C1.21743 13.7151 0.360026 18.516 1.46547 23.6252C3.69561 33.9287 14.0148 40.5667 24.4243 38.4345C35.3618 36.1937 42.1759 25.3243 39.3667 14.6018C37.1632 6.19269 29.4192 0.22184 20.6453 0.166792C19.7538 0.16092 19.1059 0.741491 19.1022 1.55033C19.0985 2.34522 19.7294 2.90156 20.6001 2.9434C21.4982 2.98671 22.4023 3.02927 23.2878 3.17313C32.3898 4.64988 38.5856 13.3819 36.947 22.3943C35.2907 31.5036 26.4849 37.5009 17.3341 35.7526C5.99387 33.5859 0.232674 20.8369 6.15528 11.0141C6.2345 10.882 6.32261 10.755 6.41738 10.6097C7.77605 11.5888 9.10288 12.5452 10.4941 13.5471C10.0203 10.4849 9.56046 7.51824 9.09622 4.51777C6.06421 5.00439 3.0744 5.48367 0.000183105 5.9769C1.42549 7.00592 2.76935 7.97697 4.13986 8.96709ZM20.857 15.3291C20.857 14.0689 20.86 12.8094 20.8555 11.5492C20.8541 11.1396 20.566 10.9172 20.2084 11.0325C19.9322 11.1213 19.8974 11.3378 19.8974 11.5896C19.9011 14.0851 19.8967 16.5806 19.9034 19.0761C19.9041 19.3352 19.856 19.5098 19.6168 19.6809C18.9134 20.1858 18.8372 21.1796 19.4132 21.8189C20.0011 22.4714 21.0177 22.4978 21.6078 21.8468C21.7803 21.6567 21.9513 21.6141 22.1838 21.6149C23.7632 21.6207 25.3425 21.62 26.9225 21.6163C27.423 21.6149 27.64 21.3873 27.6096 20.922C27.5852 20.5477 27.3801 20.3737 26.9299 20.3723C25.375 20.3686 23.8202 20.3678 22.2653 20.3745C22.0602 20.3752 21.9558 20.3077 21.8277 20.1359C21.6374 19.8798 21.3857 19.6449 21.1102 19.4841C20.9192 19.3719 20.8518 19.2801 20.8533 19.0724C20.8607 17.8246 20.857 16.5769 20.857 15.3291ZM12.7813 30.0797C13.5076 30.0863 14.1081 29.5021 14.1051 28.7894C14.1022 28.0848 13.5261 27.5101 12.8153 27.5042C12.0801 27.4984 11.4929 28.0709 11.4959 28.7916C11.5004 29.5014 12.0697 30.0731 12.7813 30.0797ZM30.3262 10.3917C29.6102 10.3991 29.0379 10.9672 29.0372 11.6725C29.0364 12.3881 29.6361 12.979 30.3558 12.9694C31.0629 12.9606 31.6442 12.3793 31.6456 11.6798C31.6471 10.9591 31.0585 10.3837 30.3262 10.3917ZM19.0156 5.88882C19.0193 6.59123 19.5983 7.16593 20.3076 7.17254C21.031 7.17914 21.6167 6.59637 21.6145 5.87047C21.6122 5.14531 21.0266 4.58089 20.2891 4.5941C19.5739 4.60584 19.0119 5.17761 19.0156 5.88882ZM9.63968 20.7781C9.63672 20.0633 9.074 19.5047 8.35284 19.501C7.62278 19.4974 7.02675 20.0816 7.03563 20.7928C7.04452 21.4952 7.62501 22.0714 8.33062 22.0773C9.05623 22.0846 9.64264 21.5018 9.63968 20.7781ZM30.7993 28.8085C30.8067 28.0877 30.2581 27.5197 29.5414 27.5057C28.8039 27.4918 28.2116 28.051 28.2012 28.7725C28.1916 29.4896 28.7787 30.079 29.5044 30.0797C30.2211 30.0805 30.7919 29.5197 30.7993 28.8085ZM20.5905 34.2127C21.3124 34.2142 21.8862 33.66 21.8958 32.9532C21.9062 32.2339 21.3213 31.6394 20.6001 31.6358C19.8767 31.6321 19.2947 32.2178 19.2992 32.9437C19.3044 33.6586 19.8663 34.2113 20.5905 34.2127ZM33.6848 19.501C32.9636 19.4996 32.3949 20.0522 32.3838 20.7657C32.372 21.4842 32.9591 22.0773 33.6818 22.0773C34.4037 22.0773 34.9983 21.482 34.9879 20.7686C34.9775 20.064 34.4007 19.5018 33.6848 19.501Z" fill="white"/>
<path d="M4.13986 8.96709C2.76935 7.97697 1.42549 7.00592 0.000183105 5.9769C3.0744 5.48367 6.06421 5.00439 9.09548 4.51777C9.55972 7.51824 10.0195 10.4849 10.4934 13.5471C9.10214 12.5445 7.77605 11.5888 6.41664 10.6097C6.32187 10.7558 6.23376 10.8828 6.15454 11.0141C0.232674 20.8369 5.99387 33.5859 17.3334 35.7526C26.4842 37.5009 35.29 31.5036 36.9463 22.3943C38.5856 13.3819 32.389 4.64988 23.2878 3.1724C22.403 3.02854 21.4982 2.98597 20.6001 2.94267C19.7294 2.90083 19.0985 2.34522 19.1022 1.54959C19.1059 0.742225 19.7538 0.16092 20.6453 0.166792C29.4192 0.22184 37.1632 6.19269 39.3667 14.6018C42.1759 25.3243 35.3618 36.1937 24.4243 38.4345C14.0148 40.5667 3.69561 33.9287 1.46547 23.6252C0.360026 18.516 1.21743 13.7151 3.96956 9.25187C4.02065 9.16893 4.06952 9.08453 4.13986 8.96709Z" fill="#EC003B"/>
<path d="M20.857 15.3299C20.857 16.5776 20.8607 17.8254 20.8533 19.0731C20.8518 19.2809 20.9191 19.3726 21.1102 19.4849C21.3856 19.6456 21.6374 19.8812 21.8276 20.1367C21.9557 20.3084 22.0594 20.3759 22.2652 20.3752C23.8201 20.3686 25.375 20.3693 26.9299 20.373C27.38 20.3737 27.5851 20.5484 27.6096 20.9228C27.6399 21.3881 27.423 21.6156 26.9225 21.6171C25.3432 21.6215 23.7638 21.6215 22.1838 21.6156C21.9513 21.6149 21.7803 21.6567 21.6077 21.8476C21.0169 22.4986 20.001 22.4722 19.4131 21.8197C18.8371 21.1804 18.9126 20.1866 19.6168 19.6816C19.8552 19.5099 19.904 19.3352 19.9033 19.0768C19.8966 16.5813 19.9011 14.0858 19.8974 11.5903C19.8966 11.3393 19.9322 11.1228 20.2083 11.0332C20.566 10.918 20.854 11.1404 20.8555 11.5499C20.8599 12.8102 20.857 14.0697 20.857 15.3299Z" fill="#EC003B"/>
<path d="M12.7813 30.0807C12.0697 30.0741 11.5004 29.5023 11.4967 28.7926C11.493 28.0725 12.0801 27.4993 12.8161 27.5052C13.5269 27.511 14.1029 28.085 14.1059 28.7903C14.1081 29.5023 13.5076 30.0873 12.7813 30.0807Z" fill="#EC003B"/>
<path d="M30.3261 10.3924C31.0584 10.3851 31.647 10.9598 31.6456 11.6813C31.6441 12.3807 31.0628 12.962 30.3557 12.9708C29.6361 12.9796 29.0363 12.3895 29.037 11.6739C29.0385 10.9678 29.6101 10.3997 30.3261 10.3924Z" fill="#EC003B"/>
<path d="M19.0156 5.88966C19.0119 5.17844 19.5739 4.60667 20.2892 4.5942C21.0274 4.58172 21.6123 5.14541 21.6145 5.87057C21.6167 6.59647 21.0318 7.17924 20.3077 7.17264C19.5976 7.16677 19.0193 6.59207 19.0156 5.88966Z" fill="#EC003B"/>
<path d="M9.63968 20.7786C9.64264 21.5023 9.05549 22.085 8.33061 22.0784C7.62499 22.0718 7.04377 21.4964 7.03562 20.794C7.02674 20.082 7.62277 19.4985 8.35283 19.5022C9.074 19.5052 9.63671 20.0637 9.63968 20.7786Z" fill="#EC003B"/>
<path d="M30.7993 28.8094C30.7927 29.5206 30.221 30.0814 29.5051 30.0806C28.7794 30.0799 28.1916 29.4905 28.2019 28.7734C28.2123 28.0527 28.8039 27.4927 29.5421 27.5066C30.2581 27.5205 30.806 28.0886 30.7993 28.8094Z" fill="#EC003B"/>
<path d="M20.5905 34.2137C19.8663 34.2122 19.3036 33.6596 19.2992 32.9447C19.2947 32.2188 19.8767 31.6338 20.6001 31.6367C21.3212 31.6404 21.9062 32.2342 21.8958 32.9542C21.8862 33.661 21.3124 34.2152 20.5905 34.2137Z" fill="#EC003B"/>
<path d="M33.6847 19.5017C34.4007 19.5032 34.9775 20.0647 34.9878 20.77C34.9982 21.4834 34.4036 22.0787 33.6817 22.0787C32.9583 22.0787 32.3719 21.4856 32.3838 20.7671C32.3949 20.0529 32.9635 19.5002 33.6847 19.5017Z" fill="#EC003B"/>
</svg>
