<svg width="40" height="41" viewBox="0 0 40 41" fill="none" xmlns="http://www.w3.org/2000/svg">
<path d="M29.9866 25.8956C29.2188 25.0944 28.3007 24.6771 27.3242 24.6771C26.356 24.6771 25.4212 25.0944 24.6284 25.8873L22.041 28.4746C21.8157 28.3494 21.5903 28.2326 21.365 28.1241C21.0729 27.9822 20.7975 27.8403 20.5638 27.6901C18.1684 26.1711 15.9984 24.193 13.9202 21.6307C12.8936 20.3287 12.2009 19.2354 11.7168 18.1253C12.3928 17.5077 13.0188 16.8734 13.6281 16.2474C13.8534 16.0221 14.0788 15.7884 14.3041 15.563C15.122 14.7451 15.556 13.802 15.556 12.8422C15.556 11.8824 15.122 10.9393 14.3041 10.1213L12.1091 7.92629C11.8587 7.6759 11.6 7.41717 11.3579 7.16678C10.8738 6.67436 10.3731 6.15689 9.84725 5.67282C9.0794 4.91331 8.16967 4.5127 7.20151 4.5127C6.2417 4.5127 5.31527 4.91331 4.52238 5.67282C4.51403 5.68116 4.51403 5.68116 4.50569 5.68951L1.75145 8.44375C0.733211 9.46199 0.157324 10.6972 0.0321312 12.1328C-0.109754 13.9105 0.215747 15.7967 1.05871 18.0753C2.35237 21.5807 4.30538 24.8357 7.20151 28.3244C10.7236 32.5309 14.9551 35.8443 19.7876 38.1812C21.6321 39.0576 24.0942 40.0842 26.8484 40.2678C27.0154 40.2761 27.1906 40.2845 27.3492 40.2845C29.1854 40.2845 30.7294 39.6251 31.9313 38.3148C31.9396 38.3064 31.9563 38.2897 31.9647 38.2814C32.3903 37.7723 32.866 37.3049 33.3752 36.8208C33.7174 36.4869 34.0762 36.1448 34.4184 35.7775C36.0292 34.0999 36.0209 31.9633 34.4017 30.3442L29.9866 25.8956ZM32.9912 34.3754C32.9829 34.3754 32.9829 34.3754 32.9912 34.3754C32.6741 34.7092 32.3486 35.0264 32.0064 35.3602C31.4889 35.861 30.9464 36.3784 30.4623 36.9627C29.6361 37.8557 28.6512 38.273 27.3742 38.273C27.2491 38.273 27.1239 38.273 26.9987 38.2647C24.595 38.1061 22.3582 37.1713 20.6806 36.3701C16.1069 34.1584 12.1007 31.0118 8.76225 27.0391C6.008 23.7256 4.1635 20.6542 2.94495 17.3658C2.19379 15.346 1.91002 13.777 2.03522 12.2913C2.11868 11.3315 2.49426 10.5303 3.17864 9.84591L5.92454 7.10001C6.3335 6.70774 6.77585 6.50743 7.20985 6.50743C7.63551 6.50743 8.06117 6.70774 8.44509 7.09167C8.45344 7.10001 8.46178 7.10836 8.47013 7.11671C8.96255 7.57575 9.42994 8.05148 9.92237 8.5606C10.1728 8.81098 10.4315 9.07806 10.6902 9.33679L12.8853 11.5318C13.7616 12.4082 13.7616 13.2678 12.8853 14.1442C12.6516 14.3779 12.4262 14.6116 12.1925 14.8369C11.5081 15.5297 10.8655 16.1807 10.1644 16.8066C10.1477 16.815 10.1394 16.8317 10.1227 16.8484C9.47167 17.4994 9.57183 18.117 9.7304 18.5844C9.73875 18.6094 9.7471 18.6261 9.75544 18.6511C10.323 20.0283 11.1242 21.3303 12.3428 22.8743L12.3511 22.8827C14.5712 25.6119 16.8998 27.7401 19.4788 29.376C19.8043 29.5846 20.1381 29.7516 20.4636 29.9101C20.7557 30.052 21.0311 30.1939 21.2648 30.3442C21.2899 30.3608 21.3233 30.3775 21.3566 30.3942C21.6154 30.5194 21.8658 30.5862 22.1161 30.5862C22.7505 30.5862 23.1511 30.1856 23.2846 30.052L26.0389 27.2978C26.4478 26.8888 26.8902 26.6718 27.3158 26.6718C27.8416 26.6718 28.2756 27.0057 28.5427 27.2811C28.5511 27.2894 28.5511 27.2894 28.5594 27.2978L32.9996 31.738C34.0595 32.8063 33.5755 33.7577 32.9912 34.3754Z" fill="#EC003B"/>
<path d="M22.9758 8.92789C23.2429 8.92789 23.5016 8.81939 23.6852 8.63577C23.8688 8.45216 23.9773 8.19343 23.9773 7.92635C23.9773 7.65927 23.8688 7.40054 23.6852 7.21692C23.5016 7.03331 23.2429 6.9248 22.9758 6.9248C22.7087 6.9248 22.45 7.03331 22.2664 7.21692C22.0827 7.40054 21.9742 7.65927 21.9742 7.92635C21.9742 8.19343 22.0827 8.45216 22.2664 8.63577C22.45 8.81939 22.7087 8.92789 22.9758 8.92789Z" fill="#EC003B"/>
<path d="M26.2892 10.0379C26.6481 10.0379 26.9987 9.83759 27.1823 9.49539C27.4327 9.00297 27.249 8.40204 26.7566 8.14331C26.2642 7.88458 25.6633 8.07654 25.4045 8.56897C25.1458 9.06139 25.3378 9.66232 25.8302 9.92105C25.9804 10.0045 26.1307 10.0379 26.2892 10.0379Z" fill="#EC003B"/>
<path d="M29.8197 11.8156C30.212 11.4233 30.212 10.789 29.8197 10.3967C29.4274 10.0045 28.7931 10.0045 28.4008 10.3967C28.0086 10.789 28.0086 11.4233 28.4008 11.8156C28.5928 12.0076 28.8515 12.1077 29.1103 12.1077C29.369 12.1077 29.6277 12.0076 29.8197 11.8156Z" fill="#EC003B"/>
<path d="M30.5046 13.0425C30.0122 13.3012 29.8202 13.9022 30.079 14.3946C30.2542 14.7368 30.6048 14.9371 30.972 14.9371C31.1306 14.9371 31.2892 14.9037 31.4311 14.8286C31.9235 14.5698 32.1154 13.9689 31.8567 13.4765C31.6063 12.9757 30.9971 12.7838 30.5046 13.0425Z" fill="#EC003B"/>
<path d="M31.0806 17.2489C31.0806 17.5159 31.1891 17.7747 31.3727 17.9583C31.5563 18.1419 31.815 18.2504 32.0821 18.2504C32.3492 18.2504 32.6079 18.1419 32.7915 17.9583C32.9752 17.7747 33.0837 17.5159 33.0837 17.2489C33.0837 16.9818 32.9752 16.723 32.7915 16.5394C32.6079 16.3558 32.3492 16.2473 32.0821 16.2473C31.815 16.2473 31.5563 16.3558 31.3727 16.5394C31.1891 16.723 31.0806 16.9818 31.0806 17.2489Z" fill="#EC003B"/>
<path d="M21.9075 15.4796C22.6169 15.5965 23.2596 15.9387 23.7771 16.4478C24.2945 16.9652 24.6284 17.6079 24.7452 18.3173C24.8287 18.8097 25.2543 19.1519 25.7301 19.1519C25.7885 19.1519 25.8386 19.1436 25.897 19.1353C26.4395 19.0434 26.8067 18.526 26.7149 17.9835C26.523 16.8651 25.9971 15.8469 25.1876 15.0373C24.378 14.2277 23.3597 13.7019 22.2414 13.5099C21.6989 13.4181 21.1814 13.7853 21.0896 14.3278C20.9894 14.8703 21.3567 15.3878 21.9075 15.4796Z" fill="#EC003B"/>
<path d="M39.9859 16.7565C39.2765 12.5751 37.2985 8.76088 34.2688 5.73121C31.2391 2.70154 27.4249 0.723495 23.2435 0.014069C22.701 -0.0777391 22.1835 0.289493 22.0917 0.831996C21.9999 1.3745 22.3671 1.89196 22.9096 1.98377C26.6821 2.62643 30.1207 4.40416 32.8583 7.14172C35.5875 9.87092 37.3736 13.3096 38.0162 17.0904C38.0997 17.5828 38.5254 17.925 39.0011 17.925C39.0595 17.925 39.1096 17.9166 39.168 17.9083C39.7105 17.8248 40.0777 17.3074 39.9859 16.7565Z" fill="#EC003B"/>
</svg>
