<svg width="63" height="64" viewBox="0 0 63 64" fill="none" xmlns="http://www.w3.org/2000/svg">
<path d="M31.6115 0H0C0 15.7076 0 47.3172 0 63.0217C15.6557 63.0063 47.1589 63.0217 62.796 63.0217V0H31.6115Z" fill="#EC003B"/>
<path d="M47.2332 33.0372C47.1027 32.4217 46.7533 31.8741 46.2495 31.4954H47.0692C50.4225 3.7033 12.7882 3.72489 16.1538 31.4954H16.9704C13.7873 34.6191 16.7601 37.7365 18.1676 37.9709C19.3431 41.6712 20.7042 44.0671 22.7303 46.0097C25.2607 48.4426 28.6264 49.9474 31.6239 50.0183C34.7358 50.08 37.6127 48.6677 40.1709 46.1022C42.476 43.8669 44.1536 41.0687 45.0368 37.9863C45.0368 37.9863 49.0211 36.5062 47.2332 33.0372ZM17.9449 31.3906H45.2874C42.4631 33.3949 36.8765 34.7177 31.5991 34.7825C26.1083 34.838 20.4629 33.5552 17.9449 31.3906ZM18.8729 29.3955C18.8296 24.3847 18.8729 18.2947 24.2554 16.2349V21.4461C24.2368 22.8121 26.0093 22.8121 25.9908 21.4461C25.9908 21.0576 26.0124 15.6274 25.966 15.4393C27.0456 14.9305 28.8491 14.0579 30.037 13.8975C29.9813 14.2059 30.2659 24.3539 30.2287 24.6684C30.2454 25.0175 30.3963 25.3467 30.65 25.5879C30.9037 25.829 31.2408 25.9635 31.5914 25.9635C31.942 25.9635 32.2791 25.829 32.5328 25.5879C32.7865 25.3467 32.9373 25.0175 32.954 24.6684C32.92 24.3601 33.2634 14.1535 33.152 13.8513C34.3399 14.0178 36.1402 14.9367 37.2167 15.4455C37.1796 15.649 37.1951 21.0545 37.1951 21.4523C37.1734 22.8183 38.949 22.8183 38.9274 21.4523V16.241C44.313 18.6493 44.3811 24.3755 44.313 29.4017L18.8729 29.3955Z" fill="white"/>
</svg>
