<svg width="271" height="56" viewBox="0 0 271 56" fill="none" xmlns="http://www.w3.org/2000/svg">
<path d="M271 27.8348C270.848 21.9748 270.908 29.4603 270.894 30.1674C270.959 29.3899 271 28.6205 271 27.8348Z" fill="#003975"/>
<path d="M243.196 0.149414H55.2344V55.5201C72.8623 55.5689 259.799 55.4822 270.897 55.5201C270.869 40.5978 270.913 15.0663 270.897 0.149414H243.196Z" fill="#003975"/>
<path d="M27.8036 0.149414H0C0 13.9501 0 41.7222 0 55.5201C13.7698 55.5066 41.4782 55.5201 55.2317 55.5201V0.149414H27.8036Z" fill="#EC003B"/>
<path d="M102.742 16.9573H107.005V34.1634H102.772V31.1183C102.772 29.8585 102.796 28.5987 102.747 27.3416C102.747 27.1249 102.424 26.7375 102.244 26.7348C100.195 26.6914 98.1465 26.7077 95.9862 26.7077V34.1743H91.7037V16.9573H95.9182V23.3645H102.742V16.9573Z" fill="white"/>
<path d="M87.0213 24.703C89.6849 26.2663 90.4984 30.0781 88.7952 32.5326C88.4705 33.0097 88.034 33.4008 87.5235 33.6722C87.0129 33.9436 86.4437 34.0872 85.8649 34.0904C82.8231 34.1609 79.7786 34.1148 76.6578 34.1148V17.0197C76.7509 16.9725 76.8511 16.9405 76.9544 16.9249C79.6752 16.9249 82.3959 16.887 85.1031 16.9656C87.0077 17.0225 88.2184 17.9544 88.6836 19.477C89.3121 21.5306 88.8142 23.362 87.3233 24.4944C87.2525 24.5459 87.1736 24.5947 87.0213 24.703ZM80.8614 31.3352C81.0682 31.3596 81.2151 31.3948 81.3621 31.3975C82.0831 31.3975 82.8068 31.4246 83.5387 31.3975C84.7957 31.3243 85.5031 30.5495 85.5847 29.2166C85.6663 27.8837 84.9698 26.8379 83.7944 26.6997C82.8503 26.5887 81.8899 26.6781 80.8723 26.6781L80.8614 31.3352ZM80.8614 19.7344V23.7982H82.7088C82.9506 23.8064 83.1926 23.7955 83.4326 23.7657C84.3522 23.6031 84.9099 22.7389 84.8691 21.5631C84.8338 20.4794 84.325 19.8319 83.3645 19.756C82.5483 19.6829 81.7321 19.7344 80.8587 19.7344H80.8614Z" fill="white"/>
<path d="M114.145 34.2338C112.771 34.2338 111.565 34.2338 110.36 34.2338C110.2 34.2212 110.041 34.1985 109.884 34.166V16.7729C113.113 16.9192 116.313 16.8922 119.464 17.2633C121.869 17.5342 123.096 19.1598 123.303 21.598C123.388 22.6108 123.381 23.6291 123.281 24.6405C123.047 26.9325 121.776 28.4334 119.499 28.8777C118.033 29.1649 116.506 29.1865 115.004 29.2326C114.335 29.2543 114.109 29.4304 114.131 30.1049C114.177 31.4379 114.145 32.7789 114.145 34.2338ZM114.191 26.0195C115.796 25.8 117.576 26.5857 118.588 24.9006C119.306 23.7004 119.404 22.2103 118.525 21.0697C117.423 19.6257 115.715 20.3491 114.191 20.2082V26.0195Z" fill="white"/>
<path d="M234.196 33.478V39.1104H230.248V21.8555C231.467 21.8555 232.667 21.8311 233.859 21.8826C234.036 21.8826 234.196 22.251 234.351 22.4244C235.255 22.1535 236.204 21.739 237.194 21.5791C240.046 21.1213 242.067 22.3919 242.541 25.2257C242.844 27.0181 242.86 28.8469 242.587 30.6441C242.119 33.6243 239.806 34.8515 236.495 34.1526C235.766 34.0171 235.064 33.7435 234.196 33.478ZM234.196 28.0243C234.196 28.8913 234.18 29.7609 234.196 30.6279C234.192 30.8541 234.277 31.073 234.433 31.2375C235.793 32.2615 238.095 31.5897 238.514 29.9506C238.751 28.9362 238.811 27.8886 238.691 26.854C238.487 24.8708 236.849 23.947 234.931 24.5782C234.408 24.7489 234.134 25.0009 234.174 25.6023C234.245 26.4097 234.207 27.2224 234.207 28.0352L234.196 28.0243Z" fill="white"/>
<path d="M209.769 39.3406C210.006 38.2868 210.196 37.4442 210.395 36.5664C211.167 36.7236 211.869 36.8807 212.571 37.0053C214.204 37.2762 214.764 36.9836 215.415 35.5071C215.581 35.1251 215.733 34.7377 215.937 34.2446C214.111 33.9954 213.472 32.6814 212.944 31.2022C211.959 28.4009 210.914 25.6213 209.9 22.8335C209.796 22.5626 209.712 22.2754 209.57 21.8582C211.034 21.8582 212.405 21.8284 213.774 21.8907C213.956 21.8907 214.201 22.3296 214.275 22.6032C215.042 25.3774 215.776 28.1571 216.522 30.9367C216.617 31.2916 216.74 31.6384 216.848 31.9906H217.082C217.24 31.4271 217.406 30.8663 217.553 30.3C218.22 27.748 218.913 25.1986 219.523 22.6357C219.675 22.0045 219.942 21.8229 220.568 21.8473C221.61 21.8961 222.657 21.8473 223.808 21.8473C223.697 22.2618 223.631 22.5463 223.536 22.8226C222.333 26.499 221.172 30.189 219.901 33.841C219.421 35.1326 218.828 36.3799 218.13 37.5688C217.27 39.1022 215.874 39.9502 214.109 39.896C212.699 39.85 211.279 39.5438 209.769 39.3406Z" fill="white"/>
<path d="M159.225 21.8528C160.67 21.8528 162.019 21.8203 163.366 21.888C163.57 21.888 163.842 22.3486 163.924 22.6384C164.716 25.4668 165.469 28.3061 166.239 31.1399C166.313 31.4108 166.405 31.6818 166.492 31.9744L166.74 31.9987C167.619 28.6366 168.497 25.2745 169.384 21.888H173.422C173.332 22.2239 173.275 22.5057 173.185 22.7739C171.977 26.4801 170.794 30.1917 169.537 33.8816C169.132 34.9779 168.648 36.0436 168.089 37.0704C166.949 39.2811 165.097 40.1995 162.629 39.8636C161.592 39.7227 160.566 39.487 159.421 39.2729C159.63 38.3193 159.81 37.4876 160.011 36.5637C160.735 36.71 161.399 36.8618 162.068 36.981C163.864 37.2979 164.381 37.0189 165.099 35.3771C165.241 35.0493 165.371 34.7161 165.57 34.2447C163.429 33.9737 162.972 32.2724 162.389 30.6523C161.451 28.027 160.485 25.4127 159.522 22.7956C159.435 22.5219 159.35 22.2429 159.225 21.8528Z" fill="white"/>
<path d="M187.671 21.8476L185.121 25.1338C184.577 25.8193 184.071 26.5291 183.489 27.1847C183.097 27.6317 183.124 27.9622 183.489 28.4282C184.877 30.2759 186.21 32.1561 187.725 34.2124C186.153 34.2124 184.76 34.2395 183.372 34.1853C183.168 34.1853 182.948 33.8006 182.787 33.5595C181.636 31.8093 180.496 30.051 179.177 28.328V34.2259C177.873 34.2259 176.676 34.253 175.485 34.1853C175.343 34.1853 175.123 33.6434 175.12 33.3725C175.095 29.8343 175.104 26.2934 175.104 22.7551V16.9927H179.136V27.0547L179.351 27.1414C179.938 26.2988 180.523 25.4535 181.119 24.6164C181.761 23.7088 182.235 22.468 183.116 22.0074C183.998 21.5468 185.293 21.8665 186.408 21.8476C186.727 21.8422 187.059 21.8476 187.671 21.8476Z" fill="white"/>
<path d="M201.31 21.9204V34.2283C200.094 34.2283 198.924 34.2663 197.773 34.1958C197.556 34.1958 197.365 33.7515 197.126 33.4697C196.124 33.7407 195.001 34.0387 193.861 34.315C193.503 34.3927 193.139 34.4371 192.772 34.4478C189.926 34.5995 188.599 33.3641 188.588 30.5492C188.577 27.7344 188.588 24.8599 188.588 21.9285H192.555C192.571 22.2482 192.598 22.5652 192.598 22.8849C192.598 25.0116 192.598 27.141 192.598 29.2705C192.612 31.2265 193.477 31.9147 195.431 31.5625C197.063 31.2699 197.319 30.9664 197.319 29.3518V21.9204H201.31Z" fill="white"/>
<path d="M132.243 27.2036C132.646 24.9794 132.08 24.2777 129.98 24.3291C129.251 24.3576 128.525 24.4245 127.803 24.5296C127.09 24.6217 126.383 24.7599 125.58 24.8927C125.425 24.0501 125.284 23.2671 125.123 22.3866C128.01 21.6768 130.837 21.1756 133.718 22.1157C135.331 22.6386 136.232 23.8442 136.286 25.4778C136.379 28.3496 136.311 31.2268 136.311 34.2367C135.095 34.2367 133.898 34.2611 132.703 34.2123C132.518 34.2123 132.349 33.8601 132.284 33.7924C130.907 34.0173 129.531 34.4209 128.151 34.4291C125.237 34.4426 123.621 31.774 124.81 29.1163C124.999 28.6868 125.295 28.3123 125.67 28.028C126.044 27.7436 126.485 27.5588 126.951 27.4908C127.904 27.3392 128.866 27.2488 129.83 27.2199C130.649 27.1711 131.457 27.2036 132.243 27.2036ZM132.349 29.1922C131.318 29.2626 130.407 29.2247 129.553 29.4306C129.169 29.5227 128.736 30.0645 128.636 30.4763C128.607 30.7035 128.632 30.9343 128.71 31.1498C128.787 31.3654 128.915 31.5598 129.082 31.7171C129.966 32.3674 130.97 32.1262 131.92 31.7605C132.698 31.4598 132.241 30.7798 132.339 30.2759C132.367 29.9152 132.367 29.5528 132.339 29.1922H132.349Z" fill="white"/>
<path d="M158.52 31.6249C158.667 32.3997 158.792 33.1285 158.967 33.9602C156.814 34.502 154.722 34.7973 152.633 33.9954C152.174 33.8225 151.778 33.5164 151.497 33.117C151.215 32.7175 151.06 32.243 151.052 31.7549C150.954 30.2025 150.959 28.642 150.929 27.0842C150.916 26.2715 150.929 25.475 150.929 24.5755L149.281 24.4888V21.8907L150.913 21.804V18.8049L154.953 18.3877V21.8338H158.433V24.5132H155.049C155.049 26.6535 155.011 28.68 155.07 30.7037C155.092 31.381 155.631 31.7576 156.33 31.7468C157.029 31.7359 157.704 31.6763 158.52 31.6249Z" fill="white"/>
<path d="M207.954 34.2042H204.077V15.741H207.954V34.2042Z" fill="white"/>
<path d="M249.623 34.2042H245.74V15.7437H249.623V34.2042Z" fill="white"/>
<path d="M143.597 34.1798H139.655V21.9233H143.548C143.578 22.3947 143.605 22.858 143.646 23.5489C144.865 22.1536 146.198 21.3382 148.092 21.7174L148.446 24.8682C147.918 24.8682 147.504 24.8682 147.085 24.8682C145.072 24.8953 143.608 26.3339 143.594 28.3279C143.586 30.2298 143.597 32.1452 143.597 34.1798Z" fill="white"/>
<path d="M228.398 34.177H223.966C223.966 32.9497 223.95 31.7604 223.988 30.5711C223.988 30.4329 224.282 30.1891 224.445 30.1836C225.737 30.1538 227.03 30.1674 228.398 30.1674V34.177Z" fill="#EC003B"/>
<path d="M41.5435 29.1757C41.4288 28.635 41.1215 28.1538 40.6783 27.8211H41.3993C44.3487 3.40302 11.2477 3.42199 14.2079 27.8211H14.9262C12.1265 30.5655 14.7412 33.3045 15.9792 33.5104C17.0131 36.7615 18.2102 38.8665 19.9923 40.5733C22.2179 42.7109 25.1781 44.033 27.8145 44.0953C30.5516 44.1495 33.0819 42.9086 35.332 40.6546C37.3594 38.6906 38.835 36.2322 39.6118 33.524C39.6118 33.524 43.1162 32.2235 41.5435 29.1757ZM15.7833 27.729H39.8322C37.3481 29.49 32.4344 30.6522 27.7928 30.7091C22.9634 30.7579 17.998 29.6308 15.7833 27.729V27.729ZM16.5995 25.9761C16.5614 21.5737 16.5995 16.223 21.3336 14.4132V18.9918C21.3173 20.192 22.8763 20.192 22.86 18.9918C22.86 18.6504 22.879 13.8795 22.8382 13.7143C23.7878 13.2672 25.374 12.5005 26.4188 12.3597C26.3698 12.6306 26.6201 21.5466 26.5875 21.8229C26.6021 22.1296 26.7348 22.4189 26.958 22.6307C27.1811 22.8426 27.4776 22.9608 27.786 22.9608C28.0943 22.9608 28.3908 22.8426 28.6139 22.6307C28.8371 22.4189 28.9698 22.1296 28.9845 21.8229C28.9545 21.552 29.2565 12.5845 29.1586 12.319C30.2034 12.4653 31.7869 13.2727 32.7337 13.7197C32.701 13.8985 32.7146 18.6477 32.7146 18.9972C32.6956 20.1974 34.2573 20.1974 34.2383 18.9972V14.4186C38.9751 16.5345 39.035 21.5655 38.9751 25.9815L16.5995 25.9761Z" fill="white"/>
</svg>
