<svg width="40" height="40" viewBox="0 0 40 40" fill="none" xmlns="http://www.w3.org/2000/svg">
<path d="M20 0C8.97195 0 0 8.97195 0 20C0 31.028 8.97195 40 20 40C31.028 40 40 31.028 40 20C40 8.97195 31.028 0 20 0ZM20 37.6562C10.2643 37.6562 2.34375 29.7357 2.34375 20C2.34375 10.2643 10.2643 2.34375 20 2.34375C29.7357 2.34375 37.6562 10.2643 37.6562 20C37.6562 29.7357 29.7357 37.6562 20 37.6562Z" fill="#EC003B"/>
<path d="M20 21.0938C24.5232 21.0938 28.2031 17.4138 28.2031 12.8906C28.2031 8.36742 24.5232 4.6875 20 4.6875C15.4768 4.6875 11.7969 8.36742 11.7969 12.8906C11.7969 17.4138 15.4768 21.0938 20 21.0938ZM20 7.03125C23.2309 7.03125 25.8594 9.65977 25.8594 12.8906C25.8594 16.1215 23.2309 18.75 20 18.75C16.7691 18.75 14.1406 16.1215 14.1406 12.8906C14.1406 9.65977 16.7691 7.03125 20 7.03125Z" fill="#EC003B"/>
<path d="M33.1757 26.2065C31.6185 24.4467 29.3789 23.4375 27.0313 23.4375H12.9688C10.6212 23.4375 8.38159 24.4467 6.82433 26.2065L6.26886 26.8342L6.68339 27.5627C9.40347 32.343 14.5061 35.3125 20 35.3125C25.4939 35.3125 30.5966 32.343 33.3167 27.5627L33.7313 26.8341L33.1757 26.2065ZM20 32.9688C15.6457 32.9688 11.5812 30.7659 9.18886 27.1645C10.2398 26.2776 11.5778 25.7812 12.9688 25.7812H27.0313C28.4222 25.7812 29.7603 26.2776 30.8112 27.1645C28.4189 30.7659 24.3544 32.9688 20 32.9688Z" fill="#EC003B"/>
</svg>
